/* XPM */
static char *result[] = {
/* columns rows colors chars-per-pixel */
"60 60 109 2 ",
"   c #5A81AB",
".  c #6B93BB",
"X  c #6C99BF",
"o  c #759DBE",
"O  c #77A4BD",
"+  c #6D95C2",
"@  c #6D99C5",
"#  c #729DC5",
"$  c #749DCA",
"%  c #799ECB",
"&  c #75A3C5",
"*  c #7CA7C6",
"=  c #7BA9C6",
"-  c #76A4CB",
";  c #79A6CC",
":  c #75A9CC",
">  c #7CABCD",
",  c #7DB1CE",
"<  c #77A5D0",
"1  c #7BA7D2",
"2  c #7DADD2",
"3  c #7EB1D3",
"4  c #7FB2D9",
"5  c #81AECE",
"6  c #81B1CE",
"7  c #89B3CA",
"8  c #8CB8CD",
"9  c #81AED2",
"0  c #83B3D4",
"q  c #89B5D5",
"w  c #86B9D6",
"e  c #8BBAD6",
"r  c #85B5D9",
"t  c #89B6D9",
"y  c #86B9D9",
"u  c #8BBCDB",
"i  c #95B5D6",
"p  c #92BCD6",
"a  c #90B6D8",
"s  c #93BDDB",
"d  c #9CBFDB",
"f  c #8DBEE1",
"g  c #91BEE0",
"h  c #8EC0D7",
"j  c #8EC1DD",
"k  c #94C0D3",
"l  c #9DC7D7",
"z  c #93C3DD",
"x  c #9BC4DD",
"c  c #97C9DF",
"v  c #9CC9DE",
"b  c #A2C4DD",
"n  c #A9C7DD",
"m  c #A3CADE",
"M  c #ABCBDF",
"N  c #8EC2E0",
"B  c #93C4E1",
"V  c #9AC6E1",
"C  c #95C9E3",
"Z  c #9CCBE3",
"A  c #96CBE8",
"S  c #9BCEE8",
"D  c #9ED0E5",
"F  c #9ED1EA",
"G  c #A5C7E0",
"H  c #A3CCE3",
"J  c #ABCDE2",
"K  c #A5CEE8",
"L  c #B2CEE2",
"P  c #A5D2E5",
"I  c #ABD3E6",
"U  c #ACDCE7",
"Y  c #A4D3EA",
"T  c #ACD4E9",
"R  c #A6D9EC",
"E  c #ACDAEC",
"W  c #B4D3E4",
"Q  c #BBD6E6",
"!  c #B5D9E7",
"~  c #BCD9E6",
"^  c #B2D6E9",
"/  c #BAD6E9",
"(  c #B3DBEC",
")  c #BBDCEB",
"_  c #A7DBF1",
"`  c #AFDFF1",
"'  c #B2DEF1",
"]  c #BBDDF1",
"[  c #ADE0ED",
"{  c #B5E2EE",
"}  c #BCE3EE",
"|  c #ACE0F3",
" . c #B5E2F2",
".. c #BBE3F2",
"X. c #BBEAF3",
"o. c #C0D9E7",
"O. c #C3DDEA",
"+. c #CADFED",
"@. c #C0DFF0",
"#. c #C3E2ED",
"$. c #CAE3ED",
"%. c #D0E8ED",
"&. c #C4E5F2",
"*. c #C9E6F1",
"=. c #C5EAF3",
"-. c #CBE9F3",
";. c #CDEDF9",
":. c #D2ECF5",
">. c #D4F0F7",
/* pixels */
"z 4 1 > 0 2 q 0 q o.V r r y u 0 B j e 0 > x ^ I 3 6 H m Z V B m B B 0 B s r z f j 3 3 e 9 > u q x } =.-.} w 0 , u 0 y N ",
"B 0 2 0 0 q L / $.W z u 0 2 3 : - = 3 3 > ( ;.Z 6 e v H I T { E u 9 t E w # 0 y C - @ y 0 0 W W E ( ! E } w 3 0 0 > 2 3 ",
"j y t B > r u H I 2 y A 0 1 , 8 o q j > 1 I R c > > - > u Z #.B y b H E w 5 2 B B f > 9 0 1 e I V z T y A B S u 3 : y y ",
"j y 0 B r y G $.u ; 2 1 9 # n / Q ) e @ 2 ~ I c 2 b W L o.) p O.#.~ x #...H 2 e I ..T 2 m G ~ ) / ] T 0 y w z I T P Y C ",
"0 w w u c c ) v 9 9 g T } z p > 7 t 9 / V y C A u l 0 y x e q H =.x 0 -.;.j 2 3 3 u B s m p H u P =.P 2 2 0 q v I Z Y F ",
"r B z B F w 0 3 M I H -.} z 2 9 0 u s I ^ S R S Y w 6 x Z e P I E 0 > z } s 9 I J J I H > > 2 1 z D S ; 9 y 0 j E y 0 u ",
"e e 3 r B 2 2 b ! g p &.X.e > e r V ( 0 I ;.) 0 u r k I ^ T ' X.P - p W o.x z p 0 e s j , 0 > + 0 u B 9 0 e 0 3 u r 1 > ",
"4 3 2 < 2 p x z 9 9 0 Y R e r w 2 y V r z ( Y > ; r , x E u B Y B r H ) u Y x > 5 > > j j 0 0 9 2 B V r 9 , 0 0 j u 2 r ",
"3 z P x V =.} w r # > B B j > 0 0 0 N t u B Z 9 0 u 0 u V e 3 y r 0 / G r 0 N j j u V K Y Y R F 9 9 g r > t r # r B 2 r ",
"0 x H I T ( { z 0 $ # t B u ; 5 r 0 Z I u B K u 6 j 6 y 6 , e 3 b o.) s > 0 r N j P T I I P E E u & u u e r > @ - y 2 0 ",
"e , H Y z ) ( N 9 u 9 0 B f ; e w 0 z v 0 r B 0 w j 0 J ^ h 3 3 0 z y 2 M x r B A E I J I H P S s 2 f u w z s v 9 r ; 5 ",
"w 0 y u O.) u y ^ } r ; y B e 0 5 0 ; $ % @ r 9 3 c y x } h 4 e > 9 9 / #.> > 0 u Z ( I {  .#.B r 9 0 3 G { X.E 0 9 3 u ",
"0 G W / / q 2 r ) I y 2 f B j > y 3 0 r u 2 2 0 w j j r ..&.H C I ! Q O.t 1 < r x #.( u S R R B r 2 0 > e j j r t 9 r u ",
"z P u e r 0 W W J V R y q B 0 y z V F Y R u 2 v I I I Y { =.P w k 0 u u r J / J J ..( t 2 u j f r r r e 0 e Q o.! t W G ",
"&.&.r 0 0 e } T q $.-.G 0 u q m I I I -.H 0 0 e c I ) x R Y 0 6 w , y B q O.-.s J =.] e 0 y j w y w I T I E =.X.Z _ u L ",
"( R 6 ; r 0 6 t > P ( c - > r 6 z I z | z 2 z e P } =.0 y y 5 r 0 2 3 c r x @.u m $.E > = r j 3 3 0 j P Z x Y D r f 9 s ",
" .E 6 > y y 2 * ; M Y c > y j x H E z N x z I I ( X.E 0 0 N r r > x Z G B Z =.=.I E D 2 u e j y r u 6 D z 3 s u 1 - 3 e ",
"Y P u > 5 3 d W W O.x 3 4 x I P H V C A C s T z u S B x y u 3 0 q m P ( ^ T | { h B C - j j j 3 - y 3 e u 0 r 2 0 2 0 0 ",
"0 u 0 0 s z x 0 e z 3 v H Z I I C u 2 f u 9 u c 0 0 t ) l & > 0 r 0 Z } ^ 0 A F r 2 3 6 = j 0 > r 9 > u N 3 9 u 2 u y 2 ",
"2 t 9 z ( ( y 0 ; r G *.Z b -.&.q r 2 - y r r B A W W O.P 2 9 B Y H { =.I > 0 B w ; e z & u e ; j e 9 0 j y H Y w j B 0 ",
"6 > 0 e B K B B ( I v r 0 u ..E r 0 0 3 e u 5 y v p 5 r 9 t L H I Z R _ B 9 0 z B e Z Y V j j 0 u c ; 0 0 e Z E t ; r r ",
"; 0 y 2 H ! r : M $.j 0 $ r V S u , w C j j ; y j 0 2 a J J V V ( r r B t 5 2 9 r r z I r w 0 6 z u 0 y z z T -.H 1 1 y ",
"2 u j 2 e I G x o.! y u > 0 f g c 0 w j y 2 2 > w e 0 H ;.e / *.( 0 < 0 u r d J M J +.I 2 9 2 # u j m V T I  ...S 0 0 y ",
"u y u 9 9 Z ) G I 6 0 y = - y B f 3 , h 0 0 x O > > q 9 u 2 Z  .P 1 2 > 0 x l e e V I x 3 2 > $ 3 N V v I u B F u 2 0 3 ",
"N j j ; . 6 m z B u ~ -.#.w 2 t u e v H x ^ :.P ; r w 0 0 3 z Z c > > > q p z v z S E P u q ^ B 1 r u P { 0 > u y r 0 y ",
"u y 0 .   5 I I T (  .X.E y ; 0 0 s J T P '  .F 3 6 B u 3 0 u Z S 0 > r e v P ( I T ( ^ I / $.H 9 - 9 K H > 2 2 w 0 u j ",
"w 2 @ 6 8 0 m ^ s u H S C 0 2 3 r m Z Z j N S u 3 2 y s 9 0 y z B y 3 y 0 y P =.H s .... .T H c 0 9 r u y 0 r j 0 ; j j ",
"y 0 6 ( x z ;.#.u 1 0 y y 9 d b n *.V j 0 > u 0 > u y u 0 0 9 r N u 0 z I I } =.G ) I V ( { I y r q Z r r 0 e y e : 0 0 ",
"r 0 0 r 3 y E E 0 ; 5 0 u > H J #.x 2 r e 0 0 9 ; r B f 0 0 5 r j e c P J v E D ) ) ( ) :.>.Z > 0 e g 9 5 u F y 2 - $ y ",
"e w ; 9 @ 0 B A w 3 u 0 9 0 e P z 3 y 0 j C / T r 9 u j 0 > j u j G x H T u > 2 s *.&.` '  .V > y r 9 s $.H T H e V 0 > ",
"e 2 2 r $ $ u s u 0 $ o x y I Y 5 d O.) J E =.} u 2 0 0 0 0 z Z V z &.=.I > 2 0 x I V u &.-.V 9 0 r B ' &.I _ ..[ F w 0 ",
"0 2 0 2 r ; t B j 0 o $ s 0 q y L %.I I Z S _ F 0 r 0 0 y 0 Z T y 2 K  .V ; 3 ; 0 w h v G ^ j 1 t s Z I K V r B S S 0 > ",
"v g 0 B R u 0 y B H v d i n L o./ ! I T Z 2 y B 2 r 0 u y 0 u 0 r 0 c V V > 2 r w , > q ! V r u $.! x ) ) z 9 2 9 r t V ",
"T I Y Y D 0 3 3 x H ^ I M ( e e u z -.*.s ; > 3 0 0 u C 3 0 B 0 0 5 z F u 9 0 t G ! L O.#.y t J G g q &.=.j > > 9 r e J ",
"T z u F C > 9 y , G Y 0 - 0 0 > u u K _ y ; r 3 B 9 y e 9 0 y j 0 w I I t W W L +.s ) &.#.J Z t 2 2 , D Y y - 0 w 0 2 u ",
"z 0 0 t u 9 u r w u C > > y r v ^ u B B u > q 0 B 9 0 9 2 u w u r H H 0 s x 9 q t 9 ) R =.=.B > 9 ; > V B j r S 3 > e 0 ",
"9 q e 2 z y ; + y u j ; y y 0 z Z 0 r B q > y = = B o p 0 y B u 0 0 0 2 2 r J O.~ $.^ [ R Y B - t u 3 x P y t V j 3 r 6 ",
"y 0 2 3 w B B 0 9 z B 9 0 9 0 0 x 9 $ 2 0 0 c l 0 H 8 e 0 0 u y 2 0 j u J H ^ (  .[ 3 u A u C 0 0 9 0 0 j 0 $ u j > 9 0 ",
"0 - 0 u y u F c 2 t j 0 3 e y 0 6 9 r q x d @.^ Z H Z ; - - e M p r x Z H ( P } *.Z 1 3 y w u 2 9 y 0 3 B w 1 y B 0 5 r ",
"t 0 y > 0 , u u 1 1 r r w 3 B j ; 0 r J J W I 9 q 2 u t d L +.J ! s P P 0 e x V  .x 2 0 0 0 , 3 u 2 q z N 0 r B y r 0 e ",
"y 0 > y B 5 z B 1 2 y r 3 4 3 r & x I r - : 2 s ~ ) y 0 m P x P #.s q u 9 G T H S c 0 t 3 q b K H B / #.B u r V 5 > B u ",
"x r y B C 2 0 u 5 y 0 3 0 > b L W $.G q a J L $.=.( u x 6 : k ( H 2 z r 0 V S T 0 q q q x B H I K (  .X.P 5 0 g 0 > w u ",
"C 0 9 0 3 9 e u u > 0 u y y H x ) k v I z ! $.H ( c z B w 3 q > r 0 P A u u I G s / J Q ! > Z E s u Z F j ; ; 9 9 0 0 y ",
"B 0 1 q W W { S r 0 j 3 3 4 y ) I ; u C I #.m ! ( v 2 y y x P H V Z B V f 9 9 > B u 9 q t d m j t 1 1 t r 0 2 0 r u r y ",
"r q d V e w u N j e 0 > J M ~ ~ t ; t H G V 0 ) =.v > 3 0 p G I H P 0 j T J u < 4 u ) +.) ! z j u 2 > 2 y w 0 c s j r 0 ",
"0 V *.B w y w u y > 0 z x 8 z w q J Z u 2 9 r V P C & w r 0 Z I y t 9 3 u r 0 G L J J Y V j j u u w B 0 0 > 0 0 u 0 3 0 ",
"9 $ q V B y N u y 0 u B , > 0 y y +.C N B > # z j c 3 u 6 r w j 0 - q m d G o.l G B s *.*.s 2 u w e C 0 s H y w h 0 2 0 ",
"z 9 < 9 u ) P > 2 u y S 0 6 B u @ > j B 0 2 - r y e r 0 > 2 3 j r > 6 G $.o.T z w 2 q (  .e 0 y 3 > j j e #.v 0 w 0 0 r ",
"j u 2 2 u O.H y 3 u 3 0 r = w > & > 2 0 0 0 0 5 0 0 0 3 0 r j e w r 0 3 I J ( ..B 0 r V A e r 0 u V v v u ) -.j 0 f 0 > ",
"u y p ) W G S Y q 0 0 ; C 7 6 ; = = & 6 r y r r c j 0 > 0 u N c 0 r j j 0 k &.#.e 0 0 x j j 9 t v H T T I '  .{ B t j y ",
"u 2 z #.x p -.*.z 6 e q m P H P e > 0 5 r 0 0 0 0 j r 9 0 y 0 N > = j e 2 u D E q $ $ y u B 2 0 0 x T &.u B Z D u ; u A ",
"r y 0 0 3 q I _ w - > r 0 c I c E w > r w 6 6 0 0 x r 9 0 3 3 2 r 6 e H V G z A u > $ 0 B B 9 r 9 P =.} 0 - 2 u 0 0 e u ",
"0 0 r 9 % 9 Q H u 2 s B x I Y u A y > 0 0 j e 0 ; u s r 0 9 Z v 0 u B P D c r u y j C 9 f N 0 5 r Z  .Y t 9 u B u z 5 6 ",
"0 2 > J W ) ) s 2 r Z T Z Y x B A j 3 3 0 u 0 y v y u 2 0 p H Y c 9 B j j 0 2 c y u D : q B 0 Z x 4 C B 9 > 0 q y r z r ",
"9 y x p 6 e t 0 L V Z T P x r 0 s r > w c w 0 x #.e - 2 q 0 e E I r j u q > 2 u s y u z w u I =.j : 9 q r 9 n d b J Z N ",
"9 z Y q 0 ; u I &.s W -.( 3 q > > u r u u v / W ) V 2 e B M I [ z 6 r u 2 s 5 & > r 0 s u u .. .w 3 0 0 z b n x H V w N ",
"0 u Y u V ) I p r 3 V  .Y 0 0 0 0 u y 9 r z 0 , 6 2 s W P I x A w f f y y ) ^ 6 6 r r 2 0 0 D H y w r y j u 0 0 u j w j ",
"r s H r 2 Q ] y > $ f Z A y > j B u w t 0 0 0 y x I m z Z e 3 j u u N c 3 e S e y w j w u 0 z y ; = > > 0 u > 6 0 e u j ",
"t 0 q f s O.H y u 2 r r y j 0 y j e y S u 9 u F x v e e u ; r z y y 0 j : , y y j 0 r 0 , y 6 0 > 6 5 ; > y 3 2 2 w j w ",
"0 0 r 1 u z 0 9 w u 0 9 0 3 y 0 N u u B 0 - r D r 2 u o 0 X 0 u u 3 3 3 y 0 w y u r y w 0 r 0 0 0 e e > q j 0 0 0 3 > j "
};
