/* XPM */
static char *result[] = {
/* columns rows colors chars-per-pixel */
"45 60 175 2 ",
"   c #020201",
".  c #090806",
"X  c #000A0D",
"o  c #0C0C0C",
"O  c #110E07",
"+  c #11110E",
"@  c #1A150B",
"#  c #1D180E",
"$  c #080E11",
"%  c #00141B",
"&  c #05191F",
"*  c #0C181A",
"=  c #141413",
"-  c #1A1A15",
";  c #1C1C1B",
":  c #171B1A",
">  c #241D0E",
",  c #1B211D",
"<  c #22221C",
"1  c #29271E",
"2  c #2A291F",
"3  c #2A2314",
"4  c #332A16",
"5  c #011B24",
"6  c #1F1F20",
"7  c #002633",
"8  c #002B3C",
"9  c #172323",
"0  c #232323",
"q  c #242923",
"w  c #2C2C24",
"e  c #2B2B2B",
"r  c #303026",
"t  c #34342B",
"y  c #39392D",
"u  c #2F2F30",
"i  c #333333",
"p  c #3D3D31",
"a  c #46381C",
"s  c #493F27",
"d  c #564625",
"f  c #424235",
"g  c #4C4C3D",
"h  c #47463A",
"j  c #514C37",
"k  c #56513B",
"l  c #665127",
"z  c #69552B",
"x  c #755D2E",
"c  c #7C6432",
"v  c #003345",
"b  c #003A4D",
"n  c #003C51",
"m  c #4A3C4B",
"M  c #00425A",
"N  c #004055",
"B  c #004B65",
"V  c #004E69",
"C  c #00536E",
"Z  c #005673",
"A  c #005D7D",
"S  c #565645",
"D  c #5C5C4B",
"F  c #595744",
"G  c #5B5B54",
"H  c #494940",
"J  c #615E49",
"K  c #5F604D",
"L  c #62614D",
"P  c #696752",
"I  c #6A6A55",
"U  c #6B6B5C",
"Y  c #656557",
"T  c #73735C",
"R  c #726B63",
"E  c #7B7B62",
"W  c #7D747D",
"Q  c #676768",
"!  c #8B6F36",
"~  c #8C7037",
"^  c #807E63",
"/  c #B8934A",
"(  c #A88743",
")  c #818066",
"_  c #848469",
"`  c #8A8A6E",
"'  c #8D8D72",
"]  c #918F71",
"[  c #929275",
"{  c #969679",
"}  c #9B9B7D",
"|  c #989778",
" . c #A09E7D",
".. c #CFA653",
"X. c #D5AA55",
"o. c #E5B75C",
"O. c #FFD168",
"+. c #FAC864",
"@. c #005F81",
"#. c #006284",
"$. c #006689",
"%. c #006A8F",
"&. c #006E93",
"*. c #007096",
"=. c #00769D",
"-. c #007BA4",
";. c #0082AD",
":. c #008CBB",
">. c #0093C4",
",. c #0099CC",
"<. c #009DD1",
"1. c #848484",
"2. c #8B8B8C",
"3. c #9B9B9B",
"4. c #9D9A87",
"5. c #A3A383",
"6. c #A9A987",
"7. c #ACAC8A",
"8. c #B0AF8B",
"9. c #B1B18E",
"0. c #B4B490",
"q. c #BBBB95",
"w. c #BFBF99",
"e. c #A5A599",
"r. c #B99EB3",
"t. c #AA8DAA",
"y. c #ABABA7",
"u. c #BBAFB2",
"i. c #CBBDB0",
"p. c #C5C59D",
"a. c #CCCCA3",
"s. c #C7C8A0",
"d. c #D5D5AA",
"f. c #DADAAE",
"g. c #DDDDB2",
"h. c #E3DFBA",
"j. c #DFE0B3",
"k. c #E3E3B5",
"l. c #E7E6B8",
"z. c #ECECBC",
"x. c #D7B1CD",
"c. c #EDB8DC",
"v. c #E9B4D4",
"b. c #F0BEDD",
"n. c #F2BEE4",
"m. c gray82",
"M. c #CDC5CB",
"N. c #E5D5C6",
"B. c #E8CDDD",
"V. c #F3C5DE",
"C. c #EFEFC2",
"Z. c #EFE3CC",
"A. c #F4F4C3",
"S. c #F9F9C6",
"D. c #FFFFCC",
"F. c #FAF5CE",
"G. c #FDEBDB",
"H. c #FFFED1",
"J. c #FFFFDC",
"K. c #FEF3D9",
"L. c #E9E9D4",
"P. c #F5C2EC",
"I. c #F7CBE7",
"U. c #FEDFE9",
"Y. c #FAC7F6",
"T. c #FBCBF4",
"R. c #FAC8F8",
"E. c #FFD5F3",
"W. c #E5D7E6",
"Q. c #E2E2E2",
"!. c #FFFFEB",
"~. c #FFFFE1",
"^. c #FFEEFF",
"/. c #FFFFFF",
"(. c None",
/* pixels */
"(.(.(.(.(.(.(.(.(.(.(.(.(.(.(.(.(.(.(.(.(.(.(.(.(.(.(.(.(.(.(.(.(.(.(.(.(.(.(.(.(.(.(.(.(.",
"(.(.(.(.(.(.(.(.(.(.(.(.(.(.(.(.(.  (.(.(.(.(.(.(.(.(.(.(.(.(.(.(.(.(.(.(.(.(.(.(.(.(.(.(.",
"(.(.(.(.(.(.(.(.(.(.(.(.(.(.(.(.(.    . . . .         (.(.(.(.(.(.(.(.(.(.(.(.(.(.(.(.(.(.",
"(.(.(.(.(.(.(.(.(.(.(.(.(.(.    o = 6 e e e e e 0 6 = o .     (.(.(.(.(.(.(.(.(.(.(.(.(.(.",
"(.(.(.(.(.(.(.(.(.(.(.(.    = 0 e i i i i i i i i i i u e 0 = .   (.(.(.(.(.(.(.(.(.(.(.(.",
"(.(.(.(.(.(.(.(.(.(.    = e i i i i i i i i i i i i i i i i i e - o   (.(.(.(.(.(.(.(.(.(.",
"(.(.(.(.(.(.(.(.(.  o 0 i i i i i i i i i i i i i i i i i i i i i e :     (.(.(.(.(.(.(.(.",
"(.(.(.(.(.(.(.(.  = i i i i i i i i i i i i i i i i i i i i i i i i i 0 o   (.(.(.(.(.(.(.",
"(.(.(.(.(.(.(.  ; i i i i i i i i i i i i i i i i i i i i i i i i i i i e o   (.(.(.(.(.(.",
"(.(.(.(.(.(.  ; i i i i i i i i i i i i i i i i i i i i i i i i i i i i i e o   (.(.(.(.(.",
"(.(.(.(.(.  = i i i i i i i i i i i i i i i i i i i i i i i i i i i i i i i e . (.(.(.(.(.",
"(.(.(.(.  o u i i i i i i i i i i i i i i i i i i i i i i i i i i i i i i i i 0   (.(.(.(.",
"(.(.(.(.. 0 i i i i i i i i e w e e e i i i i i i i i i i i i i i i i i i i i i =   (.(.(.",
"(.(.(.  : i i i i i i 0 = o = ; - = o = q i i i i i i i i i i i i e 6 ; ; 6 e i e   (.(.(.",
"(.(.(.. e i i i i e = = S } s.f.d.s.} H o - u i i i i i i u i u : o w p f r - o ; o   (.(.",
"(.(.  = i i i i e o g p.S.H.H.H.D.H.D.S.4.- : i i i i i i i e o p 6.k.A.S.z.s.` t .   (.(.",
"(.(.  e i i i e o I z.D.D.D.D.D.D.D.D.D.H.7.= 0 i i i i i e o I l.H.D.D.D.D.D.D.z.{ ; (.(.",
"(.(.o i i i i + F A.D.D.D.D.D.D.D.D.D.D.D.D.T o u i i i i o D A.D.D.D.D.D.D.D.D.D.H.T   (.",
"(.  - i i i ; w g.D.D.D.D.D.D.D.D.D.D.D.D.D.f.< 0 i i i 0 = a.H.D.D.D.D.D.D.D.D.D.D.9.. (.",
"(.  0 i i e o { H.D.D.D.D.D.D.D.D.D.D.D.D.D.D.I o i i i o g S.D.D.D.D.D.D.D.D.D.D.D.f.; (.",
"(.. e i i ; r l.D.D.D.D.D.D.D.D.D.D.D.D.D.D.D.7.o u i u o [ D.D.D.D.D.D.D.D.D.D.D.D.z.y (.",
"(.o u i i o T D.D.D.D.D.D.D.D.D.D.D.D.D.D.D.D.f.< 0 i e ; d.D.D.D.D.D.D.D.D.D.D.D.D.D.S   ",
"  = i i e o 9.D.D.D.D.D.D.D.D.D.D.D.D.D.D.D.D.A.p ; i ; p A.D.D.D.D.D.D.D.D.D.D.J.~.H.T   ",
"  = i i 0 ; g.D.D.D.D.D.D.D.D.D.D.D.D.D.D.D.D.A.g = e = D H.D.D.D.D.D.D.D.S.4.e././.!.5.  ",
"  - i i = f A.H.S.k.C.H.H.D.D.D.D.D.D.D.D.D.H.9.+ @ @ . q 6.A.D.D.D.D.D.D.}   Q /./.L.9.. ",
"  ; i i o U D.g.D u M./.!.H.D.D.D.D.D.D.D.D.H.6.4 ..X./ x @ 0.H.D.D.D.D.A.p X : 2.1.D } . ",
"  6 i u o [ D.S   6 Q././.H.D.D.D.D.D.D.D.D.D.w.3 o.O.O.X.< p.D.D.D.D.D.z.U 3.G m.3.h E   ",
"  0 i e o 0.g.0 ; o 3.m.y.A.D.D.D.D.D.D.D.D.H.g.w / O.+.l g A.D.D.D.D.D.D.} W r.^.W.4.S   ",
"  0 i e o s.k.Y y.1.Q.2.g A.D.D.D.D.D.D.D.D.D.D.J d o.x 1 p.D.D.D.D.D.D.D.Z.x.R.R.T.x.< (.",
"  ; i 0 = d.K.r.t.M./.u.6.D.D.D.D.D.D.D.D.D.D.D.a.w > y w.D.D.D.D.D.D.D.D.E.n.n.v.n.t.  (.",
"  . 0 e 6 g.E.n.n.R.T.B.F.D.D.D.D.D.D.D.D.D.D.D.D.p.' k.H.H.D.D.D.D.D.D.D.G.I.P.b.x.m (.(.",
"(.(.  + 6 k.E.v.c.n.v.E.H.D.D.D.D.D.D.D.D.D.D.D.D.D.D.A.l.A.D.D.D.D.D.D.D.D.H.K.i.i   (.(.",
"(.(.(.  o ' N.V.T.Y.I.G.D.D.D.D.D.z.6.E ] d.D.D.D.S.} y q f  .A.D.D.D.D.D.H.S.7.w   (.(.(.",
"(.(.(.(.  . w R y.N.F.D.D.D.D.D.D.T & v 7 q 7.D.S.[ & Z &.V * 0.H.D.D.H.S.w.J o   (.(.(.(.",
"(.(.(.(.o e 0 o @ 1 E S.D.D.D.D.l.w $.,.:.V ; g g = #.<.,.,.8 [ D.D.d.[ h o = -   (.(.(.(.",
"(.(.(.. 0 i i i e g 9.D.D.D.D.D.d.9 ;.A 7 7 % B V 5 v n &.>.7 { H.D.) = : e u u . (.(.(.(.",
"(.(.  ; i i i i e ' H.D.D.D.D.D.k.q &.-.Z 5 N ,.<.$.X b -.*., a.D.D.C.G w i i i =   (.(.(.",
"(.(.. = e e 0 = o ) D.D.D.D.D.D.7.+ A Z 7 X A <.,.;.% v $.=.* 6.D.D.H.E o 0 i i 0   (.(.(.",
"(.(.(.    o w D 7.C.D.D.D.D.D.A.g N >.$.A 7 V ,.,.=.& b C >.n P D.D.D.A.E = o = o   (.(.(.",
"(.(.(.(.  T z.S.H.D.D.D.D.D.D.k.q *.<.<.<.N $ 8 v 5 % =.,.=.5 [ H.D.D.D.S.s.) L = (.(.(.(.",
"(.(.(.(.  6.H.D.D.D.D.D.D.D.D.k.y 8 A A v , T F 1 | L & 8 , I z.D.D.D.D.D.D.D.z.S (.(.(.(.",
"(.(.(.(.o p.H.D.D.D.D.D.D.D.D.S.p.L r r L q.z.f.w.S.k. .) 8.z.z.D.D.D.D.D.D.D.z.T   (.(.(.",
"(.(.(.(.= d.D.D.D.D.D.D.D.D.D.D.z.z.g.f.z.S.D.D.D.D.D.A.z.z.z.D.D.D.D.D.D.D.D.S.}   (.(.(.",
"(.(.(.(.< g.D.D.D.D.D.D.D.D.D.D.D.D.D.D.D.D.D.D.D.D.D.D.D.D.D.D.D.D.D.D.D.D.D.S.7.o (.(.(.",
"(.(.(.(.< k.D.D.D.D.D.D.D.D.D.D.D.D.D.D.D.D.D.D.D.D.D.D.D.D.D.D.D.D.D.D.D.D.D.S.q.+ (.(.(.",
"(.(.(.(.< f.D.D.D.D.D.D.D.D.D.D.D.D.D.D.D.D.D.D.D.D.D.D.D.D.D.D.D.D.D.D.D.D.D.z.q.+ (.(.(.",
"(.(.(.(.- d.D.D.D.D.D.D.D.D.D.D.D.D.D.D.D.D.D.D.D.D.D.D.D.D.D.D.D.D.D.D.D.D.D.A.9.. (.(.(.",
"(.(.(.(.. q.D.D.D.D.D.D.D.D.D.D.D.D.D.D.D.D.D.D.D.D.D.D.D.D.D.D.D.D.D.D.D.D.D.A. .  (.(.(.",
"(.(.(.(.  [ D.D.D.D.D.D.D.D.D.D.D.D.D.D.D.D.D.D.D.D.D.D.D.D.D.D.D.D.D.D.D.D.S.z.)   (.(.(.",
"(.(.(.(.  S S.D.D.D.D.D.D.D.D.D.D.D.D.D.D.D.D.D.D.D.D.D.D.D.D.D.D.D.D.D.D.D.S.z.g (.(.(.(.",
"(.(.(.(.(.; f.D.D.D.D.D.D.D.D.D.D.D.D.D.D.D.D.D.D.D.D.D.D.D.D.D.D.D.D.D.D.D.z.d., (.(.(.(.",
"(.(.(.(.(.  E D.D.D.D.D.D.D.D.D.D.D.D.D.D.D.D.D.D.D.D.D.D.D.D.D.D.D.D.D.D.D.z.`   (.(.(.(.",
"(.(.(.(.(.(.- p.D.D.D.D.D.D.D.D.D.D.D.D.D.D.D.D.D.D.D.D.D.D.D.D.D.D.D.D.D.D.f.y (.(.(.(.(.",
"(.(.(.(.(.(.  f k.D.D.D.D.D.D.D.D.D.D.D.D.D.D.D.D.D.D.D.D.D.D.D.D.D.D.D.z.z._   (.(.(.(.(.",
"(.(.(.(.(.(.(.  h g.D.D.D.D.D.D.D.D.D.D.D.D.D.D.D.D.D.D.D.D.D.D.D.D.D.A.A.q.< (.(.(.(.(.(.",
"(.(.(.(.(.(.(.(.  w 5.C.D.D.D.D.D.D.D.D.D.D.D.D.D.D.D.D.D.D.D.D.S.A.z.a.} t   (.(.(.(.(.(.",
"(.(.(.(.(.(.(.(.(.a z k [ j.D.D.D.D.D.D.D.D.D.D.D.D.D.D.D.S.A.z.p.{ D d >   (.(.(.(.(.(.(.",
"(.(.(.(.(.(.(.(.(.3 d ! z j P 9.z.D.D.D.D.D.H.H.D.z.z.f.q.' ) J d c ~ ~ 4 (.(.(.(.(.(.(.(.",
"(.(.(.(.(.(.(.(.(.(.(.> a ( > o f h I _ ' [ [ [ ) I g r + O l c a c a . (.(.(.(.(.(.(.(.(.",
"(.(.(.(.(.(.(.(.(.(.(.(.  > O (.(.                    (.(.(.@ @ (.(.(.(.(.(.(.(.(.(.(.(.(."
};
