/* XPM */
static char *result[] = {
/* columns rows colors chars-per-pixel */
"60 59 169 2 ",
"   c #090806",
".  c #31312C",
"X  c #464024",
"o  c #635B33",
"O  c #444446",
"+  c #6A6341",
"@  c #BC7D02",
"#  c #BD7F08",
"$  c #BB5833",
"%  c #CC5E2D",
"&  c #C75A2B",
"*  c #CE602F",
"=  c #CE6131",
"-  c #D16A35",
";  c #D4723A",
":  c #E1722D",
">  c #E67C2E",
",  c #E37A33",
"<  c #AD5D57",
"1  c #837945",
"2  c #B46651",
"3  c #BB7867",
"4  c #CC7B43",
"5  c #D87F42",
"6  c #C17E56",
"7  c #BE8108",
"8  c #C1860B",
"9  c #C48A0F",
"0  c #C08307",
"q  c #DF9B02",
"w  c #C78E14",
"e  c #CD971F",
"r  c #E19C02",
"t  c #E09D09",
"y  c #E9A403",
"u  c #EAA505",
"i  c #FBB509",
"p  c #FFB90B",
"a  c #E3A512",
"s  c #FEBD18",
"d  c #F2AC06",
"f  c #CE9923",
"g  c #D29E29",
"h  c #E78B3E",
"j  c #E98836",
"k  c #F19233",
"l  c #F69C35",
"z  c #D5A32D",
"x  c #D9AB38",
"c  c #DDB03F",
"v  c #E8B42F",
"b  c #FAA436",
"n  c #FEAE39",
"m  c #FFB13C",
"M  c #F0BB2E",
"N  c #FDC52C",
"B  c #FEC121",
"V  c #FCCA3A",
"C  c #8F834A",
"Z  c #988C4F",
"A  c #978F59",
"S  c #9D945C",
"D  c #A69855",
"F  c #B5A65D",
"G  c #83816E",
"H  c #BF8878",
"J  c #BAB47C",
"K  c #DD8C4A",
"L  c #DF924D",
"P  c #D19153",
"I  c #E78E41",
"U  c #E99647",
"Y  c #DCA55B",
"T  c #ECA24F",
"R  c #E1B542",
"E  c #E4BA49",
"W  c #FDBB4A",
"Q  c #E9A757",
"!  c #F1B85E",
"~  c #C18979",
"^  c #C49C73",
"/  c #C8BF7D",
"(  c #D1B273",
")  c #EBB965",
"_  c #EBC149",
"`  c #EBC454",
"'  c #EEC959",
"]  c #F1CD5E",
"[  c #FEC151",
"{  c #FCD75A",
"}  c #FCD95E",
"|  c #DAC66F",
" . c #D3C67B",
".. c #DBCC78",
"X. c #D8C575",
"o. c #F2CF60",
"O. c #F4CA6D",
"+. c #FCCB60",
"@. c #F3D163",
"#. c #FCD267",
"$. c #F4D66A",
"%. c #FBD46B",
"&. c #F6DA6F",
"*. c #F3CF71",
"=. c #E3D27A",
"-. c #EDD97B",
";. c #E9D47A",
":. c #F5D374",
">. c #F6DC72",
",. c #F9DE76",
"<. c #F3DD7C",
"1. c #F9DD7A",
"2. c #ECC46B",
"3. c #FBE175",
"4. c #F6E17E",
"5. c #FAE37D",
"6. c #CA7993",
"7. c #D27C9B",
"8. c #9CA894",
"9. c #AEAE83",
"0. c #A9AD8B",
"q. c #BBB784",
"w. c #BEB997",
"e. c #BBA79B",
"r. c #9CADA4",
"t. c #BCA8A6",
"y. c #A4B5AF",
"u. c #BBBFA7",
"i. c #ABBBBC",
"p. c #A7BAB7",
"a. c #D6809E",
"s. c #C2BE8E",
"d. c #C6A89D",
"f. c #DCA8B3",
"g. c #B9C4BB",
"h. c #D1C581",
"j. c #E6DB84",
"k. c #FBE681",
"l. c #FCE984",
"z. c #FDED8C",
"x. c #FEF08F",
"c. c #FFF292",
"v. c #FFF39C",
"b. c #FFF3A2",
"n. c #FFF4AB",
"m. c #FFF6B5",
"M. c #FFF7BE",
"N. c #E7B4C3",
"B. c #EEBACB",
"V. c #ECB1C5",
"C. c #F1BACB",
"Z. c #BACBCD",
"A. c #B4C8C9",
"S. c #BED0D3",
"D. c #DDCDD9",
"F. c #C1D3D4",
"G. c #C2D6DB",
"H. c #C6DADF",
"J. c #CAD9DD",
"K. c #C6C4CB",
"L. c #F6C1D1",
"P. c #FFF7C0",
"I. c #CBDDE3",
"U. c #EBD6E1",
"Y. c #CFE1E5",
"T. c #D0E2E6",
"R. c #D5EFF1",
"E. c #E4E4EB",
"W. c None",
/* pixels */
"W.W.W.W.W.W.W.W.W.W.W.W.W.W.W.W.W.W.W.W.W.W.W.W.W.W.W.W.W.W.W.W.W.W.W.W.W.W.W.W.W.W.W.W.W.W.W.W.W.W.W.W.W.W.W.W.W.W.W.W.",
"W.W.W.W.W.W.W.W.W.W.W.W.W.W.W.W.W.W.W.W.W.W.W.W.W.W.W.W.W.W.W.W.W.W.W.W.W.W.W.W.W.W.W.W.W.W.W.W.W.W.W.W.W.W.W.W.W.W.W.W.",
"W.W.W.W.W.W.W.W.W.W.W.W.W.W.W.W.W.W.W.W.W.W.W.W.W.c.c.c.W.W.W.W.W.W.W.W.W.W.W.W.W.W.W.W.W.W.W.W.W.W.W.W.W.W.W.W.W.W.W.W.",
"W.W.W.W.W.W.W.W.W.W.W.W.W.W.W.W.W.W.W.W.W.b.n.m.m.m.n.b.c.c.c.c.c.W.W.W.W.W.W.W.W.W.W.W.W.W.W.W.W.W.W.W.W.W.W.W.W.W.W.W.",
"W.W.W.W.W.W.W.W.W.W.W.W.W.W.W.W.W.W.W.b.m.M.P.P.P.M.M.M.b.c.c.c.c.c.c.c.W.W.W.W.W.W.W.W.W.W.W.W.W.W.W.W.W.W.W.W.W.W.W.W.",
"W.W.W.W.W.W.W.W.W.W.W.W.W.W.W.W.W.v.n.M.P.M.M.M.M.M.M.M.b.c.c.c.c.c.c.c.c.c.W.W.W.W.W.W.W.W.W.W.W.W.W.W.W.W.W.W.W.W.W.W.",
"W.W.W.W.W.W.W.W.W.W.W.W.W.W.W.W.v.m.M.M.M.P.M.P.P.M.M.b.c.c.c.c.c.c.c.c.c.z.z.W.W.W.W.W.W.W.W.W.W.W.W.W.W.W.W.W.W.W.W.W.",
"W.W.W.W.W.W.W.W.W.W.W.W.W.W.W.v.M.M.M.M.M.M.P.M.m.b.c.c.c.c.x.z.l.l.k.k.k.l.k.k.k.W.W.W.W.W.W.W.W.W.W.W.W.W.W.W.W.W.W.W.",
"W.W.W.W.W.W.W.W.W.W.W.W.W.W.v.m.P.M.P.M.P.P.m.b.c.c.c.c.z.l.l.k.k.k.k.k.k.k.k.k.5.&.W.W.W.W.W.W.W.W.W.W.W.W.W.W.W.W.W.W.",
"W.W.W.W.W.W.W.W.W.W.W.W.W.v.m.M.M.P.M.P.M.b.c.c.c.c.z.l.k.k.k.k.k.k.k.k.k.k.k.k.k.1.@.W.W.W.W.W.W.W.W.W.W.W.W.W.W.W.W.W.",
"W.W.W.W.W.W.W.W.W.W.W.W.W.n.P.M.P.M.M.m.v.z.c.c.z.l.k.k.k.k.k.k.k.k.k.k.k.k.k.k.k.k.&.o.W.W.W.W.W.W.W.W.W.W.W.W.W.W.W.W.",
"W.W.W.W.W.W.W.W.W.W.W.W.v.M.M.M.M.P.m.v.c.c.c.l.l.k.k.k.k.k.k.k.k.k.k.k.k.k.k.k.k.k.1.$.W.W.W.W.W.W.W.W.W.W.W.W.W.W.W.W.",
"W.W.W.W.W.W.W.W.W.W.W.W.n.M.M.P.P.M.v.x.c.c.z.k.k.k.k.k.k.k.k.k.k.k.k.k.k.k.k.k.k.k.k.$.o.W.W.W.W.W.W.W.W.W.W.W.W.W.W.W.",
"W.W.W.W.W.W.W.W.W.W.W.v.m.P.M.M.M.b.c.x.c.z.k.k.k.k.k.k.k.k.k.k.k.k.k.k.k.k.k.k.k.k.k.,.o.o.W.W.W.W.W.W.W.W.W.W.W.W.W.W.",
"W.W.W.W.W.W.W.W.W.W.W.b.M.M.P.M.b.c.c.c.c.l.k.k.k.k.k.k.k.k.k.k.k.k.k.k.k.k.k.k.k.k.k.1.@.o.W.W.W.W.W.W.W.W.W.W.W.W.W.W.",
"W.W.W.W.W.W.W.W.W.W.W.b.P.P.M.n.c.c.c.c.l.k.k.k.k.k.k.k.k.k.k.k.k.k.k.k.k.k.k.4.k.k.k.3.@.o.W.W.W.W.W.W.W.W.W.W.W.W.W.W.",
"W.W.W.W.W.W.W.W.W.W.c.b.M.m.b.c.c.c.c.c.l.5.l.l.5.l.k.k.k.k.k.k.k.k.k.k.k.k.( + F l.l.>.@.@.o.W.W.W.W.W.W.W.W.W.W.W.W.W.",
"W.W.W.W.W.W.W.W.W.W.c.c.v.v.c.c.c.c. .A F 5.l.5.5.l.k.k.k.k.k.k.l.l.k.k.k.l.A . o l.5.>.@.@.o.W.W.W.W.W.W.W.W.W.W.W.W.W.",
"W.W.W.W.W.W.W.W.W.c.c.c.c.c.c.c.v.j.G O   F l.k.l.k.5.3.>.%.%.#.%.%.>.1.k.l.1   Z l.3.>.@.@.o.W.W.W.W.W.W.W.W.W.W.W.W.W.",
"W.W.W.W.W.W.W.W.W.c.c.c.c.c.c.c.c.j..     F l.k.5.#.[ W m m n n n n n h T O.| D -.k.>.>.@.o.o.@.W.W.W.W.W.W.W.W.W.W.W.W.",
"W.W.W.W.W.W.W.W.c.c.c.c.c.c.c.c.c.c.S X C 4.k.1.W n b l k k k k l k j : : > Q 1.l.3.&.&.@.o.] @.W.W.W.W.W.W.W.W.W.W.W.W.",
"W.W.W.W.W.W.W.c.c.c.c.c.c.c.c.c.c.c.x.4.l.5.k.{ b b b l b b b b l > : : : : : O.5.>.&.&.o.o.@.] W.W.W.W.W.W.W.W.W.W.W.W.",
"W.W.W.W.W.W.W.c.c.c.c.c.c.c.c.c.c.c.l.5.5.l.l.&.m n n n n n m n k : : : : : h >.,.&.&.$.o.@.] @.W.W.W.W.W.W.W.W.W.W.W.W.",
"W.W.W.W.W.W.c.c.c.c.c.c.c.c.c.c.c.c.5.l.l.5.5.l.%.W n b b l k > : : : : , U O.4.&.&.&.@.o.] @.] o.W.W.W.W.W.W.W.W.W.W.W.",
"W.W.W.W.W.c.c.x.z.z.c.c.c.c.c.c.c.z.k.k.k.k.k.k.k.5.%.! T U I h I U T ) O.5.3.>.&.&.&.o.o.o.o.o.o.W.W.W.W.W.W.W.W.W.W.W.",
"W.W.W.W.c.c.z.k.k.k.l.c.c.c.c.c.z.l.k.k.k.k.k.k.k.k.k.k.k.5.5.1.5.5.k.l.l.5.>.&.&.&.o.o.o.o.o.o.o.W.W.W.W.W.W.W.W.W.W.W.",
"W.W.W.W.c.l.5.k.k.k.k.l.z.c.c.c.l.l.k.k.k.k.k.k.k.k.k.k.k.k.k.k.k.k.k.k.k.,.&.&.>.$.o.o.o.o.o.o.o.o.W.W.W.W.W.W.W.W.W.W.",
"W.W.W.c.z.k.k.k.k.k.k.k.l.z.x.l.k.k.k.k.k.k.k.k.k.k.k.k.k.k.k.k.k.k.k.k.,.&.&.&.&.o.o.o.o.o.o.o.o.o.W.W.W.W.W.W.W.W.W.W.",
"W.W.W.c.l.k.k.k.k.k.k.k.k.k.l.k.k.k.k.k.k.k.k.k.k.k.k.l.k.k.k.k.k.k.k.5.&.&.&.&.$.o.o.o.o.o.o.o.o.o.o.W.W.W.W.W.W.W.W.W.",
"W.W.c.c.k.k.k.k.k.k.k.1.) ) k.k.k.k.k.k.k.k.k.k.k.k.k.k.k.k.k.k.k.k.k.>.&.&.&.&.o.o.o.o.o.o.o.o.o.o.o.o.W.W.W.W.W.W.W.W.",
"W.W.c.z.k.k.k.k.k.k.:.K % K k.k.k.k.k.k.k.k.k.k.=.h.q.9. .k.k.k.k.k.,.>.&.&.>.$.o.] o.o.o.o.o.o.o.o.o.o.o.W.W.W.W.W.W.W.",
"W.W.c.z.k.k.k.k.k.:.5 % % P -.;.-.k.1.<.=. .w.s.A.F.H.A.8.-.k.k.k.5.>.&.&.&.>.@.o.o.o.o.o.o.o.o.] ' o.o.o.o.W.W.W.W.W.W.",
"W.W.W.z.k.k.k.k.:.4 2 3 ~ d.e.d.d.s.w.g.g.F.J.Y.T.T.T.H.r.=.k.k.k.5.&.&.&.&.&.@.o.o.o.o.o.o.o.' e 9 z ` o.o.o.W.W.W.W.W.",
"W.W.W.z.k.k.k.k.Y H N.C.U.J.i.I.I.I.Y.T.Y.Y.Y.Y.Y.Y.T.G.8.=.k.k.k.<.&.&.&.&.$.@.o.o.o.o.o.o.@._ 7 @ @ g ] o.o.o.W.W.W.W.",
"W.W.W.W.k.k.k.5.P f.C.L.E.G.Z.Y.I.T.Y.Y.Y.Y.Y.Y.Y.Y.Y.A.J 4.k.k.5.>.&.&.&.&.$.o.o.o.o.o.o.o.@.` 9 @ 7 7 R @.] o.W.W.W.W.",
"W.W.W.W.l.k.k.1.3 N.C.L.E.I.Z.Y.T.Y.Y.Y.Y.Y.Y.Y.Y.Y.H.r...l.k.k.4.&.&.&.&.&.$.o.o.o.o.o.o.o.o.] e @ W.W.f ' o.o.o.W.W.W.",
"W.W.W.W.W.k.k.*.3 C.L.L.U.R.Z.Y.Y.T.I.T.Y.T.T.T.Y.Y.g.J 4.k.k.k.3.>.&.&.&.&.$.o.o.o.o.o.o.o.o.@.x # W.W.W.E @.o.o.W.W.W.",
"W.W.W.W.W.k.k.2.3 V.C.C.B.D.K.J.T.Y.T.T.Y.T.T.T.Y.g.9.<.k.k.k.5.3.&.&.&.&.&.@.o.o.o.o.o.o.o.o.o.E 8 W.W.W.z ` @.o.o.W.W.",
"W.W.W.W.W.W.l.) < a.a.a.7.6.6.t.I.I.T.T.T.T.T.G.y.J -.k.k.k.k.4.&.&.&.&.&.&.@.o.o.o.o.o.o.o.o.o.' w W.W.W.W.x ` o.o.W.W.",
"W.W.W.W.W.W.) ; $ 2 ~ ~ ~ ^ ( X.q.g.F.G.G.A.y.0. .<.k.k.k.k.k.4.&.&.&.&.&.&.o.o.o.o.o.o.o.o.o.o.o.g W.W.W.W.W.W.R W.W.W.",
"W.W.W.W.W.W.; * - ) 4.4.5.k.l.l.4... .q.q./ ..4.k.k.k.k.k.k.5.>.&.&.&.&.&.$.o.o.o.o.o.o.o.o.o.o.] R W.W.W.W.W.W.W.W.W.W.",
"W.W.W.W.W.W.= * Q k.k.k.l.k.l.5.5.l.k.k.5.l.l.l.k.k.k.k.k.k.1.&.&.&.>.&.&.@.o.o.] o.o.o.o.] o.o.o.W.W.W.W.W.W.W.W.W.W.W.",
"W.W.W.W.W.W.= = 2.l.k.k.5.5.5.l.k.k.k.k.l.k.k.5.k.k.k.k.k.5.&.&.&.&.&.&.$.@.o.o.o.o.o.o.o.o.o.o.o.W.W.W.W.W.W.W.W.W.W.W.",
"W.W.W.W.W.W.W.K <.k.k.} N V 3.k.k.k.k.k.5.l.k.k.5.k.k.k.5.&.&.&.&.&.&.$.$.o.o.o.o.o.o.o.o.o.o.o.@.W.W.W.W.W.W.W.W.W.W.W.",
"W.W.W.W.W.W.W.W.W.k.3.B p p N 3.k.k.k.k.k.k.k.k.k.k.k.5.>.&.&.&.&.&.>.$.o.o.o.o.@.] ] @.o.] @.] W.W.W.W.W.W.W.W.W.W.W.W.",
"W.W.W.W.W.W.W.W.W.W.} p p p p V k.5.k.k.k.k.k.k.k.k.5.>.&.&.&.>.&.&.$.$.o.o.o.o.} ] @.] ] @.o.o.W.W.W.W.W.W.W.W.W.W.W.W.",
"W.W.W.W.W.W.W.W.W.W.W.p p p p s { 4.k.k.k.k.k.5.5.>.&.&.&.&.&.&.$.>.$.o.o.o.o.o.o.o.] @.] ] o.W.W.W.W.W.W.W.W.W.W.W.W.W.",
"W.W.W.W.W.W.W.W.W.W.W.d p p p p B $.>.,.,.3.>.&.&.&.&.&.&.&.&.&.>.$.@.o.o.o.o.o.o.o.@.] @.@.W.W.W.W.W.W.W.W.W.W.W.W.W.W.",
"W.W.W.W.W.W.W.W.W.W.W.t u i p p p N $.&.&.&.&.&.&.&.>.&.&.&.>.&.$.@.] ] @.] @.] @.] @.] @.o.W.W.W.W.W.W.W.W.W.W.W.W.W.W.",
"W.W.W.W.W.W.W.W.W.W.W.W.q y i p p p N #.>.&.&.&.&.&.&.&.&.&.&.&.@.] @.] ] @.] @.] @.@.] ] W.W.W.W.W.W.W.W.W.W.W.W.W.W.W.",
"W.W.W.W.W.W.W.W.W.W.W.W.W.r y i p p p M ] &.&.&.&.&.&.&.&.>.$.o.] @.] @.o.o.@.] ] ` R z W.W.W.W.W.W.W.W.W.W.W.W.W.W.W.W.",
"W.W.W.W.W.W.W.W.W.W.W.W.W.W.q r d i i u a _ &.&.&.&.&.&.&.@.o.o.@.] @.] o.} @.] x 9 # @ W.W.W.W.W.W.W.W.W.W.W.W.W.W.W.W.",
"W.W.W.W.W.W.W.W.W.W.W.W.W.W.W.r q r y r q q M &.&.&.&.$.@.o.o.o.] @.@.] ' ' ` z @ @ # W.W.W.W.W.W.W.W.W.W.W.W.W.W.W.W.W.",
"W.W.W.W.W.W.W.W.W.W.W.W.W.W.W.W.r q q r r r a o.$.o.] o.] o.o.o.@.' ` z w 9 7 7 @ @ W.W.W.W.W.W.W.W.W.W.W.W.W.W.W.W.W.W.",
"W.W.W.W.W.W.W.W.W.W.W.W.W.W.W.W.W.W.W.t q r v o.o.o.o.o.@.o.@.] _ z 7 @ @ @ 7 @ # W.W.W.W.W.W.W.W.W.W.W.W.W.W.W.W.W.W.W.",
"W.W.W.W.W.W.W.W.W.W.W.W.W.W.W.W.W.W.W.W.W.W.W.W.W.W.W.W.W.W.E f 8 @ @ @ @ @ @ 7 W.W.W.W.W.W.W.W.W.W.W.W.W.W.W.W.W.W.W.W.",
"W.W.W.W.W.W.W.W.W.W.W.W.W.W.W.W.W.W.W.W.W.W.W.W.W.W.W.W.W.W.W.W.W.# # 7 # # W.W.W.W.W.W.W.W.W.W.W.W.W.W.W.W.W.W.W.W.W.W.",
"W.W.W.W.W.W.W.W.W.W.W.W.W.W.W.W.W.W.W.W.W.W.W.W.W.W.W.W.W.W.W.W.W.W.W.W.W.W.W.W.W.W.W.W.W.W.W.W.W.W.W.W.W.W.W.W.W.W.W.W.",
"W.W.W.W.W.W.W.W.W.W.W.W.W.W.W.W.W.W.W.W.W.W.W.W.W.W.W.W.W.W.W.W.W.W.W.W.W.W.W.W.W.W.W.W.W.W.W.W.W.W.W.W.W.W.W.W.W.W.W.W."
};
