/* XPM */
static char *result[] = {
/* columns rows colors chars-per-pixel */
"60 59 169 2 ",
"   c #090806",
".  c #31312C",
"X  c #464024",
"o  c #635B33",
"O  c #444446",
"+  c #6A6341",
"@  c #BC7D02",
"#  c #BD7F08",
"$  c #BB5833",
"%  c #CC5E2D",
"&  c #C75A2B",
"*  c #CE602F",
"=  c #CE6131",
"-  c #D16A35",
";  c #D4723A",
":  c #E1722D",
">  c #E67C2E",
",  c #E37A33",
"<  c #AD5D57",
"1  c #837945",
"2  c #B46651",
"3  c #BB7867",
"4  c #CC7B43",
"5  c #D87F42",
"6  c #C17E56",
"7  c #BE8108",
"8  c #C1860B",
"9  c #C48A0F",
"0  c #C08307",
"q  c #DF9B02",
"w  c #C78E14",
"e  c #CD971F",
"r  c #E19C02",
"t  c #E09D09",
"y  c #E9A403",
"u  c #EAA505",
"i  c #FBB509",
"p  c #FFB90B",
"a  c #E3A512",
"s  c #FEBD18",
"d  c #F2AC06",
"f  c #CE9923",
"g  c #D29E29",
"h  c #E78B3E",
"j  c #E98836",
"k  c #F19233",
"l  c #F69C35",
"z  c #D5A32D",
"x  c #D9AB38",
"c  c #DDB03F",
"v  c #E8B42F",
"b  c #FAA436",
"n  c #FEAE39",
"m  c #FFB13C",
"M  c #F0BB2E",
"N  c #FDC52C",
"B  c #FEC121",
"V  c #FCCA3A",
"C  c #8F834A",
"Z  c #988C4F",
"A  c #978F59",
"S  c #9D945C",
"D  c #A69855",
"F  c #B5A65D",
"G  c #83816E",
"H  c #BF8878",
"J  c #BAB47C",
"K  c #DD8C4A",
"L  c #DF924D",
"P  c #D19153",
"I  c #E78E41",
"U  c #E99647",
"Y  c #DCA55B",
"T  c #ECA24F",
"R  c #E1B542",
"E  c #E4BA49",
"W  c #FDBB4A",
"Q  c #E9A757",
"!  c #F1B85E",
"~  c #C18979",
"^  c #C49C73",
"/  c #C8BF7D",
"(  c #D1B273",
")  c #EBB965",
"_  c #EBC149",
"`  c #EBC454",
"'  c #EEC959",
"]  c #F1CD5E",
"[  c #FEC151",
"{  c #FCD75A",
"}  c #FCD95E",
"|  c #DAC66F",
" . c #D3C67B",
".. c #DBCC78",
"X. c #D8C575",
"o. c #F2CF60",
"O. c #F4CA6D",
"+. c #FCCB60",
"@. c #F3D163",
"#. c #FCD267",
"$. c #F4D66A",
"%. c #FBD46B",
"&. c #F6DA6F",
"*. c #F3CF71",
"=. c #E3D27A",
"-. c #EDD97B",
";. c #E9D47A",
":. c #F5D374",
">. c #F6DC72",
",. c #F9DE76",
"<. c #F3DD7C",
"1. c #F9DD7A",
"2. c #ECC46B",
"3. c #FBE175",
"4. c #F6E17E",
"5. c #FAE37D",
"6. c #CA7993",
"7. c #D27C9B",
"8. c #9CA894",
"9. c #AEAE83",
"0. c #A9AD8B",
"q. c #BBB784",
"w. c #BEB997",
"e. c #BBA79B",
"r. c #9CADA4",
"t. c #BCA8A6",
"y. c #A4B5AF",
"u. c #BBBFA7",
"i. c #ABBBBC",
"p. c #A7BAB7",
"a. c #D6809E",
"s. c #C2BE8E",
"d. c #C6A89D",
"f. c #DCA8B3",
"g. c #B9C4BB",
"h. c #D1C581",
"j. c #E6DB84",
"k. c #FBE681",
"l. c #FCE984",
"z. c #FDED8C",
"x. c #FEF08F",
"c. c #FFF292",
"v. c #FFF39C",
"b. c #FFF3A2",
"n. c #FFF4AB",
"m. c #FFF6B5",
"M. c #FFF7BE",
"N. c #E7B4C3",
"B. c #EEBACB",
"V. c #ECB1C5",
"C. c #F1BACB",
"Z. c #BACBCD",
"A. c #B4C8C9",
"S. c #BED0D3",
"D. c #DDCDD9",
"F. c #C1D3D4",
"G. c #C2D6DB",
"H. c #C6DADF",
"J. c #CAD9DD",
"K. c #C6C4CB",
"L. c #F6C1D1",
"P. c #FFF7C0",
"I. c #CBDDE3",
"U. c #EBD6E1",
"Y. c #CFE1E5",
"T. c #D0E2E6",
"R. c #D5EFF1",
"E. c #E4E4EB",
"W. c None",
/* pixels */
"W.W.W.W.W.W.W.W.W.W.W.W.W.W.W.W.W.W.W.W.W.W.W.W.W.W.W.W.W.W.W.W.W.W.W.W.W.W.W.W.W.W.W.W.W.W.W.W.W.W.W.W.W.W.W.W.W.W.W.W.",
"W.W.W.W.W.W.W.W.W.W.W.W.W.W.W.W.W.W.W.W.W.W.W.W.W.W.W.W.W.W.W.W.W.W.W.W.W.W.W.W.W.W.W.W.W.W.W.W.W.W.W.W.W.W.W.W.W.W.W.W.",
"W.W.W.W.W.W.W.W.W.W.W.W.W.W.W.W.W.W.W.W.W.W.W.W.W.W.W.W.W.W.W.W.c.c.c.W.W.W.W.W.W.W.W.W.W.W.W.W.W.W.W.W.W.W.W.W.W.W.W.W.",
"W.W.W.W.W.W.W.W.W.W.W.W.W.W.W.W.W.W.W.W.W.W.W.W.W.W.W.v.c.c.c.c.v.n.m.m.m.n.b.W.W.W.W.W.W.W.W.W.W.W.W.W.W.W.W.W.W.W.W.W.",
"W.W.W.W.W.W.W.W.W.W.W.W.W.W.W.W.W.W.W.W.W.W.W.W.c.c.c.c.c.c.c.b.M.M.P.P.P.P.m.m.b.W.W.W.W.W.W.W.W.W.W.W.W.W.W.W.W.W.W.W.",
"W.W.W.W.W.W.W.W.W.W.W.W.W.W.W.W.W.W.W.W.W.W.c.c.c.c.c.c.c.c.c.b.M.P.M.P.P.P.P.P.M.m.v.W.W.W.W.W.W.W.W.W.W.W.W.W.W.W.W.W.",
"W.W.W.W.W.W.W.W.W.W.W.W.W.W.W.W.W.W.W.W.W.z.x.z.c.c.c.c.c.c.c.c.b.m.M.P.P.M.M.P.M.M.m.b.W.W.W.W.W.W.W.W.W.W.W.W.W.W.W.W.",
"W.W.W.W.W.W.W.W.W.W.W.W.W.W.W.W.W.W.W.k.l.k.l.k.k.k.l.l.z.x.c.c.c.v.b.m.M.P.M.P.M.P.P.m.v.W.W.W.W.W.W.W.W.W.W.W.W.W.W.W.",
"W.W.W.W.W.W.W.W.W.W.W.W.W.W.W.W.W.W.$.4.k.k.k.k.k.k.k.k.k.k.l.z.c.c.c.c.b.m.P.P.M.M.P.P.m.v.W.W.W.W.W.W.W.W.W.W.W.W.W.W.",
"W.W.W.W.W.W.W.W.W.W.W.W.W.W.W.W.W.@.,.k.k.k.k.k.k.k.k.k.k.k.k.l.k.x.x.c.c.c.b.m.P.P.M.M.M.m.v.W.W.W.W.W.W.W.W.W.W.W.W.W.",
"W.W.W.W.W.W.W.W.W.W.W.W.W.W.W.W.o.>.k.k.k.k.k.k.k.k.k.k.k.k.k.k.k.k.l.x.c.x.c.v.m.P.M.P.M.M.n.W.W.W.W.W.W.W.W.W.W.W.W.W.",
"W.W.W.W.W.W.W.W.W.W.W.W.W.W.W.W.@.,.k.k.k.k.k.k.k.k.k.k.k.k.k.k.k.5.k.k.x.x.c.x.v.m.M.P.M.P.m.b.W.W.W.W.W.W.W.W.W.W.W.W.",
"W.W.W.W.W.W.W.W.W.W.W.W.W.W.W.o.$.k.k.k.k.k.k.k.k.k.k.k.k.k.k.k.5.l.k.k.5.x.c.c.c.v.m.P.M.P.M.n.W.W.W.W.W.W.W.W.W.W.W.W.",
"W.W.W.W.W.W.W.W.W.W.W.W.W.W.o.o.,.l.k.k.k.k.k.k.k.k.k.k.k.k.k.k.l.5.k.k.l.5.x.c.c.c.b.M.M.M.P.m.v.W.W.W.W.W.W.W.W.W.W.W.",
"W.W.W.W.W.W.W.W.W.W.W.W.W.W.o.@.,.k.k.k.k.k.k.k.k.k.k.k.k.k.k.k.l.l.l.l.5.l.l.c.c.c.c.n.M.M.M.M.b.W.W.W.W.W.W.W.W.W.W.W.",
"W.W.W.W.W.W.W.W.W.W.W.W.W.W.o.@.,.k.k.k.<.k.k.k.k.k.k.k.k.k.k.k.5.l.5.5.l.5.5.x.c.c.c.c.n.M.P.M.b.W.W.W.W.W.W.W.W.W.W.W.",
"W.W.W.W.W.W.W.W.W.W.W.W.W.o.] @.<.k.k.F + / 5.k.k.k.k.k.k.k.k.k.k.k.k.k.k.k.k.l.c.c.c.c.c.v.m.M.b.c.W.W.W.W.W.W.W.W.W.W.",
"W.W.W.W.W.W.W.W.W.W.W.W.W.@.] $.>.5.k.o . S k.k.k.k.k.k.k.l.k.k.k.k.k.k.k.k.5.F S  .c.c.c.c.v.v.c.c.W.W.W.W.W.W.W.W.W.W.",
"W.W.W.W.W.W.W.W.W.W.W.W.W.o.] $.&.5.l.Z   1 l.l.1.>.%.%.#.%.%.,.1.5.k.l.k.l.F   O G j.c.c.c.c.c.c.c.c.W.W.W.W.W.W.W.W.W.",
"W.W.W.W.W.W.W.W.W.W.W.W.o.o.] #.&.3.k.-.D | O.U h n m n n n n m W [ #.5.k.k.F     . j.c.c.c.c.c.c.c.c.W.W.W.W.W.W.W.W.W.",
"W.W.W.W.W.W.W.W.W.W.W.W.o.o.o.@.&.&.5.k.5.Q , : : j k l k k k k l b n W 1.k.<.C X S c.c.c.c.c.c.c.c.c.c.W.W.W.W.W.W.W.W.",
"W.W.W.W.W.W.W.W.W.W.W.W.o.@.o.@.$.&.>.5.O.> : : : : > l b b b b b l b b +.l.k.k.4.x.c.c.c.c.c.c.c.c.c.c.c.W.W.W.W.W.W.W.",
"W.W.W.W.W.W.W.W.W.W.W.W.@.] o.o.$.&.&.>.:.h : : : : : k b n m m n n n m %.k.k.k.5.l.x.c.c.c.c.c.c.c.c.c.c.W.W.W.W.W.W.W.",
"W.W.W.W.W.W.W.W.W.W.W.o.] o.o.o.@.&.&.>.3.O.U , : : : : j k l b b n W %.k.k.k.k.l.l.x.c.c.c.c.c.c.c.c.c.c.c.W.W.W.W.W.W.",
"W.W.W.W.W.W.W.W.W.W.W.o.o.o.o.o.o.$.&.&.>.5.5.:.! T U I h I U T ! %.1.k.k.k.k.k.k.k.z.c.c.c.c.c.c.c.z.z.z.c.c.W.W.W.W.W.",
"W.W.W.W.W.W.W.W.W.W.W.o.o.o.o.o.o.@.&.&.&.>.5.l.k.3.k.5.5.5.5.k.k.k.l.k.k.k.k.k.k.k.l.c.c.c.c.c.c.l.k.k.l.l.c.c.W.W.W.W.",
"W.W.W.W.W.W.W.W.W.W.o.o.o.o.o.o.o.o.$.&.&.&.>.5.5.k.k.k.k.k.k.k.k.k.k.k.k.k.k.k.k.k.k.l.x.c.x.x.l.k.k.k.k.k.l.c.W.W.W.W.",
"W.W.W.W.W.W.W.W.W.W.o.o.o.o.o.o.o.o.@.&.&.&.&.,.k.k.k.k.k.k.k.k.k.k.k.k.k.k.k.k.k.k.k.k.l.x.z.k.k.k.k.k.k.k.k.z.c.W.W.W.",
"W.W.W.W.W.W.W.W.W.o.o.@.@.] @.] o.o.o.$.&.&.&.>.5.k.k.k.k.k.k.k.k.k.k.k.k.k.k.k.k.k.k.k.k.k.l.k.k.k.k.k.k.k.k.l.c.W.W.W.",
"W.W.W.W.W.W.W.W.o.] o.o.] @.] ] o.o.] @.&.&.&.&.>.k.k.k.k.k.k.k.k.k.k.k.k.k.k.k.k.k.k.k.k.k.) ) <.k.k.k.k.k.k.l.z.c.W.W.",
"W.W.W.W.W.W.W.o.o.o.o.] @.] ] @.] @.@.] $.>.&.>.&.,.k.k.k.k.5. .0.q.h.=.<.k.k.k.k.k.k.k.l.l.U = K :.l.k.k.k.k.k.z.c.W.W.",
"W.W.W.W.W.W.o.o.o.] ' ] ] @.@.] @.] @.] @.&.&.&.&.>.5.k.k.5.<.8.A.I.F.A.u.h.h.=.<.<.k.;.;.-.P & & 5 *.k.k.k.k.k.z.v.W.W.",
"W.W.W.W.W.o.o.o.' z 9 e ' o.o.o.o.o.o.o.@.>.&.&.&.&.3.k.k.k.=.r.I.T.T.T.T.I.S.g.g.s.s.w.t.e.d.~ 3 2 4 ;.l.k.k.k.z.W.W.W.",
"W.W.W.W.o.o.@.o.g @ @ 0 _ @.o.o.o.o.o.o.o.&.&.&.&.&.,.k.k.k.-.8.S.T.T.T.Y.Y.Y.Y.Y.Y.H.Y.I.p.J.U.B.B.H Y k.k.k.k.z.W.W.W.",
"W.W.W.W.o.o.o.R # # @ 8 ` o.o.o.o.o.o.o.] $.&.>.&.&.>.5.k.k.5.9.A.Y.T.Y.Y.Y.Y.Y.Y.Y.Y.Y.T.Z.F.E.C.L.f.P k.k.k.k.W.W.W.W.",
"W.W.W.o.o.o.' f W.W.@ e o.o.o.o.o.o.o.o.o.$.&.&.&.>.&.5.k.k.k...r.I.T.Y.Y.Y.Y.T.Y.Y.Y.Y.T.Z.T.U.C.B.N.P 1.k.k.k.W.W.W.W.",
"W.W.W.o.o.@.R W.W.W.7 x @.o.o.o.o.o.o.o.o.@.&.&.&.&.&.1.k.k.k.5.J p.Y.Y.Y.Y.T.T.Y.Y.Y.Y.Y.Z.R.U.L.L.C.3 *.k.l.W.W.W.W.W.",
"W.W.O.] @.` x W.W.W.8 E o.o.o.o.o.o.o.o.o.o.&.&.&.&.&.>.k.k.k.k.j.9.i.Y.Y.Y.T.T.Y.Y.Y.Y.I.K.D.B.C.C.V.3 2.k.l.W.W.W.W.W.",
"W.W.o.] ` x W.W.W.W.w ' o.o.o.o.o.o.o.o.o.@.&.&.&.&.&.>.5.k.k.k.k.4.J y.S.T.T.T.T.T.Y.H.t.6.6.7.a.a.7.< Y l.W.W.W.W.W.W.",
"W.W.W.R W.W.W.W.W.W.g ] ] o.o.o.o.o.o.o.o.o.$.>.&.&.&.>.5.5.k.k.k.k.5. .0.p.Z.S.G.S.g.w. .( ^ H ~ ~ 2 $ ; 2.W.W.W.W.W.W.",
"W.W.W.W.W.W.W.W.W.W.R ] o.o.o.o.o.o.o.o.o.o.$.>.&.&.&.&.>.k.k.k.k.k.k.k.4... .q.q. ...4.k.k.k.5.4.4.) - = ; W.W.W.W.W.W.",
"W.W.W.W.W.W.W.W.W.W.W.o.o.o.o.o.{ ] o.o.o.o.@.>.&.>.&.&.&.3.k.k.k.k.k.k.k.k.k.5.k.5.k.k.k.k.k.k.k.k.k.Q = = W.W.W.W.W.W.",
"W.W.W.W.W.W.W.W.W.W.W.o.o.o.o.o.] @.] @.o.o.o.$.&.&.&.&.&.>.5.5.k.k.k.k.k.k.k.k.k.k.k.k.5.l.k.5.k.k.k.O.= = W.W.W.W.W.W.",
"W.W.W.W.W.W.W.W.W.W.W.o.o.o.o.o.@.] @.] o.o.o.@.&.&.&.&.&.&.>.5.k.k.k.k.k.k.k.k.k.k.k.k.l.3.V N } l.k.<.5 W.W.W.W.W.W.W.",
"W.W.W.W.W.W.W.W.W.W.W.W.] o.o.o.@.] @.@.] @.@.@.$.&.&.&.&.&.&.>.5.5.k.k.k.k.k.k.5.l.5.l.3.N p p B 3.l.W.W.W.W.W.W.W.W.W.",
"W.W.W.W.W.W.W.W.W.W.W.W.o.o.o.o.] @.] ] @.] ] ] @.>.&.&.&.&.&.&.&.4.5.k.k.k.k.k.l.5.l.5.V p p p p { W.W.W.W.W.W.W.W.W.W.",
"W.W.W.W.W.W.W.W.W.W.W.W.W.o.o.o.@.] ] @.] @.o.o.] $.&.>.&.&.&.>.&.&.3.5.5.k.k.k.l.5.5.{ s p p p s W.W.W.W.W.W.W.W.W.W.W.",
"W.W.W.W.W.W.W.W.W.W.W.W.W.W.o.o.] @.] ] @.] o.o.o.@.$.&.&.&.&.&.&.&.&.&.&.>.4.3.3.3.$.s p p p p u W.W.W.W.W.W.W.W.W.W.W.",
"W.W.W.W.W.W.W.W.W.W.W.W.W.W.o.o.o.o.o.] @.] @.] o.o.@.&.&.&.&.&.&.&.&.&.&.>.&.&.&.$.N p p p i y q W.W.W.W.W.W.W.W.W.W.W.",
"W.W.W.W.W.W.W.W.W.W.W.W.W.W.W.o.o.o.@.] ] @.o.o.o.o.o.@.$.&.&.&.&.&.&.&.&.&.&.&.$.N p p p i y r W.W.W.W.W.W.W.W.W.W.W.W.",
"W.W.W.W.W.W.W.W.W.W.W.W.W.W.W.W.z R ` @.@.] o.o.o.o.o.o.@.$.&.&.&.&.&.&.&.&.>.' M p p p i y q W.W.W.W.W.W.W.W.W.W.W.W.W.",
"W.W.W.W.W.W.W.W.W.W.W.W.W.W.W.W.# @ 9 x ] @.o.o.o.o.o.o.o.@.$.$.>.&.&.&.&.$._ a y i i d y q W.W.W.W.W.W.W.W.W.W.W.W.W.W.",
"W.W.W.W.W.W.W.W.W.W.W.W.W.W.W.W.W.@ @ @ z ` ' ] o.@.o.o.o.o.o.@.@.&.&.>.&.M q q q r y r r W.W.W.W.W.W.W.W.W.W.W.W.W.W.W.",
"W.W.W.W.W.W.W.W.W.W.W.W.W.W.W.W.W.W.@ @ @ 8 9 w z E o.o.o.o.o.o.@.o.@.@.] a q q r r q r W.W.W.W.W.W.W.W.W.W.W.W.W.W.W.W.",
"W.W.W.W.W.W.W.W.W.W.W.W.W.W.W.W.W.W.W.@ @ @ @ @ @ 8 z ` ] o.o.o.o.o.@.] @.v q q t W.W.W.W.W.W.W.W.W.W.W.W.W.W.W.W.W.W.W.",
"W.W.W.W.W.W.W.W.W.W.W.W.W.W.W.W.W.W.W.W.@ @ @ @ @ @ @ 8 f E W.W.W.W.W.W.W.W.W.W.W.W.W.W.W.W.W.W.W.W.W.W.W.W.W.W.W.W.W.W.",
"W.W.W.W.W.W.W.W.W.W.W.W.W.W.W.W.W.W.W.W.W.W.7 7 7 @ # W.W.W.W.W.W.W.W.W.W.W.W.W.W.W.W.W.W.W.W.W.W.W.W.W.W.W.W.W.W.W.W.W.",
"W.W.W.W.W.W.W.W.W.W.W.W.W.W.W.W.W.W.W.W.W.W.W.W.W.W.W.W.W.W.W.W.W.W.W.W.W.W.W.W.W.W.W.W.W.W.W.W.W.W.W.W.W.W.W.W.W.W.W.W.",
"W.W.W.W.W.W.W.W.W.W.W.W.W.W.W.W.W.W.W.W.W.W.W.W.W.W.W.W.W.W.W.W.W.W.W.W.W.W.W.W.W.W.W.W.W.W.W.W.W.W.W.W.W.W.W.W.W.W.W.W."
};
