/* XPM */
static char *result[] = {
/* columns rows colors chars-per-pixel */
"60 60 200 2 ",
"   c black",
".  c #010102",
"X  c #010103",
"o  c #05070F",
"O  c #060711",
"+  c #060812",
"@  c #060813",
"#  c #070813",
"$  c #070915",
"%  c #192049",
"&  c #192149",
"*  c #1D2654",
"=  c #2C387E",
"-  c #303E8A",
";  c #323F8E",
":  c #334192",
">  c #3848A2",
",  c #3849A2",
"<  c #3949A2",
"1  c #3949A3",
"2  c #3949A4",
"3  c #3B4CAA",
"4  c #3E4FB4",
"5  c #3F4FB4",
"6  c #3E50B4",
"7  c #3F50B4",
"8  c #3F51B4",
"9  c #3F50B5",
"0  c #3F51B5",
"q  c #3F51B6",
"w  c #3F52B6",
"e  c #4050B7",
"r  c #4051B7",
"t  c #4052B7",
"y  c #4052B8",
"u  c #4061BB",
"i  c #4163BF",
"p  c #4163C0",
"a  c #4473C8",
"s  c #4473C9",
"d  c #4688D4",
"f  c #4688D5",
"g  c #4789D5",
"h  c #478AD6",
"j  c #4BA6E6",
"k  c #4EBEF4",
"l  c #4EBFF4",
"z  c #4BC1F7",
"x  c #4CC2F7",
"c  c #4DC2F7",
"v  c #4EC2F7",
"b  c #4EC3F7",
"n  c #4FC3F7",
"m  c #4FC4F7",
"M  c #4FC4F8",
"N  c #50C3F7",
"B  c #51C4F6",
"V  c #53C4F6",
"C  c #52C4F7",
"Z  c #53C4F7",
"A  c #55C5F6",
"S  c #57C5F7",
"D  c #58C5F7",
"F  c #58C6F6",
"G  c #58C6F7",
"H  c #5AC7F6",
"J  c #5BC7F6",
"K  c #5CC8F6",
"L  c #5FC8F7",
"P  c #60C9F6",
"I  c #68CDF5",
"U  c #6ACEF5",
"Y  c #6BCEF5",
"T  c #6CCEF5",
"R  c #6CCFF5",
"E  c #6DCFF5",
"W  c #6FCFF7",
"Q  c #72CFF8",
"!  c #76D2F5",
"~  c #75D1F7",
"^  c #79D4F4",
"/  c #7FD6F4",
"(  c #7FD7F4",
")  c #74D0F9",
"_  c #7BD2F9",
"`  c #7ED3F8",
"'  c #80D7F4",
"]  c #81D7F4",
"[  c #82D7F4",
"{  c #85D8F5",
"}  c #8ADBF3",
"|  c #89D9F6",
" . c #8BD9F7",
".. c #8BDAF6",
"X. c #81D4F9",
"o. c #82D4F9",
"O. c #83D4F9",
"+. c #83D5F9",
"@. c #88D6F9",
"#. c #8DD8FA",
"$. c #93DEF3",
"%. c #94DEF3",
"&. c #94DFF3",
"*. c #95DFF3",
"=. c #93DCF7",
"-. c #90D9F9",
";. c #90DAF8",
":. c #91D9FA",
">. c #92DAFA",
",. c #94DAFA",
"<. c #95DAFA",
"1. c #95DBFA",
"2. c #97DBFA",
"3. c #98DDF8",
"4. c #9ADCFA",
"5. c #9BDDFA",
"6. c #9EDEFA",
"7. c #A1DFFA",
"8. c #A3DFFA",
"9. c #A2DFFB",
"0. c #98E0F3",
"q. c #A0E4F2",
"w. c #A4E5F2",
"e. c #A5E5F2",
"r. c #A5E6F2",
"t. c #A6E6F2",
"y. c #A4E4F4",
"u. c #A8E7F2",
"i. c #ACE8F1",
"p. c #ADE9F2",
"a. c #AEE9F2",
"s. c #A3E0FB",
"d. c #A4E0FA",
"f. c #A6E0FB",
"g. c #A6E1FB",
"h. c #A7E1FB",
"j. c #B0EAF1",
"k. c #B1EBF1",
"l. c #B2EBF1",
"z. c #B3EBF1",
"x. c #B0EAF2",
"c. c #B1EAF2",
"v. c #B1EBF2",
"b. c #B2EBF2",
"n. c #B3EBF2",
"m. c #B4EBF2",
"M. c #B5EBF2",
"N. c #B3ECF2",
"B. c #B4ECF2",
"V. c #B5ECF2",
"C. c #B6ECF2",
"Z. c #B7ECF2",
"A. c #B9EDF3",
"S. c #BBEDF3",
"D. c #BCEDF3",
"F. c #BDEDF3",
"G. c #BDEEF4",
"H. c #BFEEF4",
"J. c #B1E4FB",
"K. c #BEE8FC",
"L. c #C3EEF6",
"P. c #C4EFF5",
"I. c #C6EFF5",
"U. c #C6F0F5",
"Y. c #C7F0F5",
"T. c #C8F0F5",
"R. c #C8F1F5",
"E. c #C9F1F5",
"W. c #C8F1F6",
"Q. c #C9F1F6",
"!. c #CEF2F6",
"~. c #D2F3F7",
"^. c #D6F3F9",
"/. c #D6F4F8",
"(. c #D7F4F8",
"). c #D7F5F8",
"_. c #D8F5F8",
"`. c #D9F5F8",
"'. c #DCF6F8",
"]. c #E4F7FA",
"[. c #E3F8FA",
"{. c #E6F8FA",
"}. c #E7F8FA",
"|. c #E8F8FA",
" X c #E9F9FB",
".X c #F0FBFC",
"XX c #F1FBFC",
"oX c #F2FBFE",
"OX c #F4FCFD",
"+X c #F5FCFD",
"@X c #F7FDFD",
"#X c #F5FCFE",
"$X c #F7FCFE",
"%X c #FAFDFE",
"&X c #FAFEFE",
"*X c #FBFEFE",
"=X c #FCFEFE",
"-X c #FDFEFF",
";X c white",
":X c None",
/* pixels */
"            & y 0 0 0 0 0 0 0 0 0 0 0 0 0 0 0 0 0 0 0 0 0 0 0 0 0 0 0 0 0 0 0 0 0 0 0 0 0 0 0 0 0 0 0 0 y &             ",
"            % y 0 0 0 0 0 0 0 0 0 0 0 0 0 0 0 0 0 0 0 0 0 0 0 0 0 0 0 0 0 0 0 0 0 0 0 0 0 0 0 0 0 0 0 0 y %             ",
"    . O # o * r 5 5 5 5 5 5 5 5 5 5 5 5 5 5 5 5 5 5 5 5 5 5 5 5 5 5 5 5 5 5 5 5 5 5 5 5 5 5 5 5 5 5 5 5 r * o # O .     ",
"    O : 1 , 3 p s a a a a a a a a a a a a a a a a a a a a a a a a a a a a a a a a a a a a a a a a a a s p 3 , 1 : O     ",
"    # 1 t w 9 d l k k k k k k k k k k k k k k k k k k k k k k k k k k k k k k k k k k k k k k k k k k l d 9 w t 1 #     ",
"    @ < w 0 7 h M m m m m m m m m m m m m m m m m m m m m m m m m m m m m m m m m m m m m m m m m m m M h 7 0 w < @     ",
"X . $ > 9 7 4 g m n n b v c c c c c c c c c c c c c c c c c b b b v c c c v b b b b b b b n n n n n n m g 4 7 9 > $ . X ",
"- - ; u f h g j n n Z @.h.g.g.f.f.f.f.f.f.f.f.f.f.f.f.f.g.7.{ ' ( ..d.g.g.=.' ' ' ' ' ' ^ A n n n n n n j g h f u ; - - ",
"y y e s l M m n n b S K.;X;X;X;X;X;X;X;X;X;X;X;X;X;X;X;X;XOXF.l.k.E.*X;X;X_.l.b.b.b.b.z.r.K v n n n n n n m M l s e y y ",
"0 0 5 a k m n n b c D :X:X;X;X;X;X;X;X;X;X;X;X;X;X;X;X;X;XOXD.v.v.Q.*X;X;X_.v.b.b.b.b.n.w.K v b n n n n n n m k a 5 0 0 ",
"0 0 5 a k m n Z G S L :X:X:X:X;X;X;X;X;X;X;X;X;X;X;X=X*X*X.XS.v.v.Y.@X*X*X/.v.b.b.b.b.n.w.P C Z C n n n n n m k a 5 0 0 ",
"0 0 5 a k m n O.J.8.:X:X:X:X:X:X:X;X;X;X;X;X;X;X;X=X`.W.Q.U.V.b.b.A.T.Q.Q.G.v.b.b.b.b.b.p.0.%.*./ C n n n n m k a 5 0 0 ",
"0 0 5 a k m n 4.:X:X:X:X:X:X:X:X:X:X;X;X;X;X;X;X;X*XW.x.v.v.b.b.b.b.v.v.v.v.b.b.b.b.b.b.b.n.N.V.*.Z b n n n m k a 5 0 0 ",
"0 0 5 a k m n 2.:X:X:X:X:X:X:X:X:X:X;X;X;X;X;X;X;X*XQ.v.b.b.b.b.b.b.b.b.b.b.b.b.b.b.b.b.b.b.b.N.%.Z b n n n m k a 5 0 0 ",
"0 0 5 a k m n 1.:X:X:X:X:X:X:X:X:X;X*X+XOXOXOXOXOXXXU.v.b.b.b.b.b.b.b.b.b.b.b.b.b.b.b.b.b.b.b.N.%.Z b n n n m k a 5 0 0 ",
"0 0 5 a k m n ,.:X:X:X:X:X:X:X:X:X;X XH.D.D.D.D.D.S.V.b.b.b.b.b.b.b.b.b.b.b.b.b.b.b.b.b.b.b.b.N.%.Z b n n n m k a 5 0 0 ",
"0 0 5 a k m n >.:X:X:X:X:X:X:X:X:X;X{.M.v.v.v.v.v.v.b.b.b.b.b.b.b.b.b.b.b.b.b.b.b.b.b.b.b.b.b.N.%.Z b n n n m k a 5 0 0 ",
"0 0 5 a k m n 5.:X:X:X:X:X:X:X:X;X;X|.M.b.b.b.b.b.b.b.b.b.b.b.b.b.b.b.b.b.b.b.b.b.b.b.b.b.b.b.N.%.Z b n n n m k a 5 0 0 ",
"0 0 5 a k m v 9.;X;X:X:X:X:X%X{.].}.(.m.b.b.b.b.b.b.b.b.b.b.b.b.b.b.b.b.b.b.b.b.b.b.b.b.b.b.b.N.%.Z b n n n m k a 5 0 0 ",
"0 0 5 a k m c g.;X;X;X:X:X:XOXH.M.M.m.b.b.b.b.b.b.b.b.b.b.b.b.b.b.b.b.b.b.b.b.b.b.b.b.b.b.b.b.N.%.Z b n n n m k a 5 0 0 ",
"0 0 5 a k m c f.;X;X;X;X:X:XOXD.v.b.b.b.b.b.b.b.b.b.b.b.b.b.b.b.b.b.b.b.b.b.b.b.b.b.b.b.b.b.b.N.%.Z b n n n m k a 5 0 0 ",
"0 0 5 a k m c f.;X;X;X;X;X;XOXD.v.b.b.b.b.b.b.b.b.b.b.b.b.b.b.b.b.b.b.b.b.b.b.b.b.b.b.b.b.b.b.N.%.Z b n n n m k a 5 0 0 ",
"0 0 5 a k m c f.;X;X-X[.)._.~.Z.b.b.b.b.b.b.b.b.b.b.b.b.b.b.b.b.b.b.b.b.b.b.b.b.b.b.b.b.b.b.b.N.%.Z b n n n m k a 5 0 0 ",
"0 0 5 a k m c f.;X;X*XR.j.v.v.b.b.b.b.b.b.b.b.b.b.b.b.b.b.b.b.b.b.b.b.b.b.b.b.b.b.b.b.b.b.b.b.N.%.Z b n n n m k a 5 0 0 ",
"0 0 5 a k m c f.;X;X*XQ.v.n.b.b.b.b.b.b.b.b.b.b.b.b.b.b.b.b.b.b.b.b.b.b.b.b.b.b.b.b.n.n.b.b.b.N.%.Z b n n n m k a 5 0 0 ",
"0 0 5 a k m c f.;X;X&XI.i.p.a.c.b.b.b.b.b.b.b.b.b.b.b.b.b.b.b.b.b.b.b.b.b.b.b.b.v.a.p.p.a.c.b.N.%.Z b n n n m k a 5 0 0 ",
"0 0 5 a k m c f.;X;X$X3.U T ! u.b.b.b.b.b.b.b.b.b.b.b.b.b.b.b.b.b.b.b.b.b.b.b.b.a.] Y T ! u.b.N.%.Z b n n n m k a 5 0 0 ",
"0 0 5 a k m c f.;X;X#Xo.z c J w.n.b.b.b.b.b.b.b.b.b.b.b.b.b.b.b.b.b.b.b.b.b.b.n.p.Y x c J w.n.N.%.Z b n n n m k a 5 0 0 ",
"0 0 5 a k m c f.;X;X#X+.x b K r.N.n.n.n.n.n.n.n.n.n.n.n.n.n.n.n.n.n.n.n.n.n.n.n.a.R c b K w.n.N.%.Z b n n n m k a 5 0 0 ",
"0 0 5 a k m c g.;X;X#X+.x b H 0.r.w.w.w.w.w.w.w.w.w.w.w.w.w.w.w.w.w.w.w.w.w.w.e.q.I v b K w.n.N.%.Z b n n n m k a 5 0 0 ",
"0 0 5 a k m v s.;X;X#X+.x n N H K K K K K K K K K K K K K K K K K K K K K K K K K V n b K w.n.N.%.Z b n n n m k a 5 0 0 ",
"0 0 5 a k m b 6.;X;XoXX.x n n b b b b b b b b b b b b b b b b b b b b b b b b b b n n b K w.n.N.%.Z b n n n m k a 5 0 0 ",
"0 0 5 a k m n <.:X:X:X_ c n n n n n n n n n n n n n n n n n n n n n n n n n n n n n n b K w.n.N.%.Z b n n n m k a 5 0 0 ",
"0 0 5 a k m n ;.'.:X^.~ c n n n n n n n n n n n n n n n n n n n n n n n n n n n n n n b K w.n.N.%.Z b n n n m k a 5 0 0 ",
"0 0 5 a k m b [ C.C.x.E c n n n n n n n n n n n n n n n n n n n n n n n n n n n n n n b K w.n.N.%.Z b n n n m k a 5 0 0 ",
"0 0 5 a k m b ' b.b.p.R c n n n n n n n n n n n n n n n n n n n n n n n n n n n n n n b K w.n.N.%.Z b n n n m k a 5 0 0 ",
"0 0 5 a k m b ' l.b.p.R c n n n n n n n n n n n n n n n n n n n n n n n n n n n n n n b K w.n.N.%.Z b n n n m k a 5 0 0 ",
"0 0 5 a k m n  .!.:XL.W c n n n n n n n n n n n n n n n n n n n n n n n n n n n n n n b K w.n.N.%.Z b n n n m k a 5 0 0 ",
"0 0 5 a k m n :.:X:X:XQ c n n n n n n n n n n n n n n n n n n n n n n n n n n n n n n b K w.n.N.%.Z b n n n m k a 5 0 0 ",
"0 0 5 a k m N #.:X:X:X) c b n n n n n n n n n n n n n n n n n n n n n n n n n n n n b v K w.n.N.%.Z b n n n m k a 5 0 0 ",
"0 0 5 a k m N -.:X:X:X` B Z Z n n n n n n n n n n n n n n n n n n n n n n n n n n C Z C P w.n.N.%.Z b n n n m k a 5 0 0 ",
"0 0 5 a k m b | Y.U.P.y.$.&.} F b n n n n n n n n n n n n n n n n n n n n n n n C / *.%.0.p.b.N.%.Z b n n n m k a 5 0 0 ",
"0 0 5 a k m b ' k.v.v.n.N.B.r.K b n n n n n n n n n n n n n n n n n n n n n n b Z *.V.N.n.b.b.N.%.Z b n n n m k a 5 0 0 ",
"0 0 5 a k m b ' z.n.n.b.b.n.w.J c b b b b b b b b b b b b b b b b b b b b b b v C %.N.b.b.n.n.B.&.Z b n n n m k a 5 0 0 ",
"0 0 5 a k m b ^ r.w.w.p.b.n.t.I J K K K K K K K K K K K K K K K K K K K K K K K P 0.n.b.x.t.w.r.} Z n n n n m k a 5 0 0 ",
"0 0 5 a k m n A K K P 0.n.b.x.t.w.w.w.w.w.w.w.w.w.w.w.w.w.w.w.w.w.w.w.w.w.w.w.w.w.p.b.n.t.I J K F n n n n n m k a 5 0 0 ",
"0 0 5 a k m n n v v C %.N.b.b.n.n.n.n.n.n.n.n.n.n.n.n.n.n.n.n.n.n.n.n.n.n.n.n.n.n.b.b.n.w.J c b b n n n n n m k a 5 0 0 ",
"0 0 5 a k m n n n b Z *.V.N.N.N.N.N.N.N.N.N.N.N.N.N.N.N.N.N.N.N.N.N.N.N.N.N.N.N.N.N.N.B.r.K b n n n n n n n m k a 5 0 0 ",
"0 0 5 a k m n n n n C / *.%.%.%.%.%.%.%.%.%.%.%.%.%.%.%.%.%.%.%.%.%.%.%.%.%.%.%.%.%.%.&.} F b n n n n n n n m k a 5 0 0 ",
"0 0 5 a k m n n n n n C Z Z Z Z Z Z Z Z Z Z Z Z Z Z Z Z Z Z Z Z Z Z Z Z Z Z Z Z Z Z Z Z Z n n n n n n n n n m k a 5 0 0 ",
"0 0 5 a k m n n n n n n b b b b b b b b b b b b b b b b b b b b b b b b b b b b b b b b n n n n n n n n n n m k a 5 0 0 ",
"y y e s l M m n n n n n n n n n n n n n n n n n n n n n n n n n n n n n n n n n n n n n n n n n n n n n n m M l s e y y ",
"- - ; u f h g j n n n n n n n n n n n n n n n n n n n n n n n n n n n n n n n n n n n n n n n n n n n n j g h f u ; - - ",
"X . $ > 9 7 4 g m n n n n n n n n n n n n n n n n n n n n n n n n n n n n n n n n n n n n n n n n n n m g 4 7 9 > $ . X ",
"    @ < w 0 7 h M m m m m m m m m m m m m m m m m m m m m m m m m m m m m m m m m m m m m m m m m m m M h 7 0 w < @     ",
"    # 1 t w 9 d l k k k k k k k k k k k k k k k k k k k k k k k k k k k k k k k k k k k k k k k k k k l d 7 0 q < @     ",
"    O : 1 , 3 p s a a a a a a a a a a a a a a a a a a a a a a a a a a a a a a a a a a a a a a a a a a s i 6 8 q 2 +     ",
"    . O # o * r 5 5 5 5 5 5 5 5 5 5 5 5 5 5 5 5 5 5 5 5 5 5 5 5 5 5 5 5 5 5 5 5 5 5 5 5 5 5 5 5 5 5 5 5 9 :X:X:X:X:X  :X",
"            % y 0 0 0 0 0 0 0 0 0 0 0 0 0 0 0 0 0 0 0 0 0 0 0 0 0 0 0 0 0 0 0 0 0 0 0 0 0 0 0 0 0 0 0 0 0 :X:X:X:X:X:X:X",
"            & y 0 0 0 0 0 0 0 0 0 0 0 0 0 0 0 0 0 0 0 0 0 0 0 0 0 0 0 0 0 0 0 0 0 0 0 0 0 0 0 0 0 0 0 0 q = :X:X:X:X:X:X"
};
