/* XPM */
static char *result[] = {
/* columns rows colors chars-per-pixel */
"59 60 77 1 ",
"  c #010101",
". c #070909",
"X c gray4",
"o c #160101",
"O c #1F0100",
"+ c #240202",
"@ c #2A0201",
"# c #260808",
"$ c #340404",
"% c #3C0302",
"& c #340809",
"* c #430303",
"= c #4C0405",
"- c #540304",
"; c #5C0302",
": c #640506",
"> c #6E0301",
", c #740403",
"< c #790301",
"1 c #860402",
"2 c #8A0503",
"3 c #910402",
"4 c #9D0301",
"5 c #970809",
"6 c #9D0809",
"7 c #A40401",
"8 c #AB0503",
"9 c #A50809",
"0 c #A9080A",
"q c #B00401",
"w c #B60807",
"e c #B3090A",
"r c #BB0809",
"t c #CE0706",
"y c #C70807",
"u c #CB0807",
"i c #C30808",
"p c #C90808",
"a c #D30705",
"s c #DA0502",
"d c #D10806",
"f c #E40501",
"g c #EC0501",
"h c #F70501",
"j c #F90501",
"k c #F70B07",
"l c #F70D09",
"z c #F7100C",
"x c #F71612",
"c c #F81C18",
"v c #F8221E",
"b c #F82724",
"n c #F8312E",
"m c #F83431",
"M c #F93F3C",
"N c #F9413F",
"B c #F94441",
"V c #FA6866",
"C c #FB8886",
"Z c #FB8D8C",
"A c #FC9D9B",
"S c #FCA7A6",
"D c #FCA9A7",
"F c #FCAFAE",
"G c #FDBDBC",
"H c #FDC0BF",
"J c #FDC3C2",
"K c #FDCECE",
"L c #FDD0CF",
"P c #FDD2D1",
"I c #FEDEDD",
"U c #FEE3E3",
"Y c #FEEDED",
"T c #FEF3F3",
"R c #FFF8F7",
"E c #FFFFFF",
"W c None",
/* pixels */
"WWWWWWWW.         .    XWWWWWWWWWWW.    .        . WWWWWWWW",
"WWWWWWWW               XWWWWWWWWWWW                WWWWWWWW",
"WWWWWWWW               .WWWWWWWWWWW                WWWWWWWW",
"WWWWWWWW+OO++OOOOOOOOO+#WWWWWWWWWWW++OOOO+OOOO+ooooWWWWWWWW",
"WWWW   $tssssssssssssss3   WWWWW ..1sssssssssss8695@   WWWW",
"WWWW   @fjjjjjjjjjjjjjj4   .WWWW   2jjjjjjjjjjhpee0@   WWWW",
"WWWW   @fhhhhhhhhhhhhhj4   WWWWW   1jjhhhhhhhhhy0e0@   WWWW",
"WWWW@@@-ghhlnnnnnnnchhj8@@@$WWW#@@@7jjhhhhhhhhhtrie*OO+WWWW",
".  @afffhhhMUYYYYYYAhhhhffg1   ,gffhhhhhhhhhhhhhhhge996+   ",
"   @fjhjjhhNREEEEEEShhhhjjj1   <jjjjhhhhhhhhhhhhhhhiee0+   ",
"   @fhhhhhhMREEEEEEDkhhhjhj1   ,jjhhhhhhhhhhhhhhhhhree9+   ",
"   +fhhlnmnVREETKKPChhjhjhj4@$@3jkhhhhhhhhhhhhhhhhhiee0+   ",
"   +fjhnIYYTEEEGcxxlhhhhhhjgfffhhhhhhhhhhhhhhhhhhhhree0+   ",
"   @fjhnYEEEEEEGkhhhhhhhhhhhjjjjhhhhhhhhhhhhhkhhhhhiee0+   ",
"   @fhhnYEEEEEEGlhhhhhhhhhhhhhhhhhhhhhhhhjhhhhjhhhhiee0+   ",
".  +fhhnYEEYWAGZkhhhhhhhhjhhhhhhhhhjhhhhhhhhhhhhhhhree0+   ",
"   @fhhmYEEJzjllhhhhhhhhjhhhhjhhhhhhhhhhhhhhhhhhhhhrew0+   ",
"   @fhhnYEEHlhhhhhhhhhhhhhhhhhhhhhhhhhhhhhhhhhhhhhhiew9+   ",
"   +fhhnTEEJzhhhhhhhhhhhhhhhhhhhhhhhhhhhhhhhhhhhhhhiee0+   ",
".  +fhhbFGGZkhhhhhhhhhhhhhhhhhhhhhhhhhhhhhhhhhhhhhhree0+   ",
"   @fhhhkllkhhhhhhhhhhhhhhhhhhhhhhhhhhhhhhhhhhhjhhhree0+   ",
"   +fhhhhhhhhhhhhhhhhhhhhhhhhhhhhhhhhhhhhhhhhhhhhhhiee9+   ",
"   @fhhhhhhhhhhhhhhhhhhhhhhhhhhhhhhhhhhhhhhjhhhhhhhiee0+   ",
"   @fjhhhhhjhhhhhhhhhhhhhhhhhhhhhhhhhhhhhhhhhhhhhhhree9+   ",
"   +fhhhhhhhhhhhhhhhhhhhhhhhhhhhhjhhhhjhhhhhhhhhhhhree0+   ",
"   @fjhhhhhhhhhhjhhhkhjhhhhhhhhhhhhhhhhhhhhhhhhhhhhiee0+   ",
"X. $gjjjhhhhhhhhhhhhhhhhhhhhhhhhhhhhhhhhhhhhhhhhjhhpee0+   ",
"WWWW447qhhhhhhhhhhhhhhhhhhhhhhhhhhhhhhhhhhhhhhhfsfa2,,,#. .",
"WWWW   $fhhhhhhhhhhhhhhhhhhhhhhhhhhhhhhhhhhhjhhpee0@   WWWW",
"WWWW   @ghhhhhhhhhhhhhhhhhhhhhhhhhhhhhhjhjhhjjhpee0@   WWWW",
"WWWW   @gjjhhhhhhhhhhhhhhhhhhhhhhjhhhhhhhhhhkjkper0@   WWWW",
"WWWWW..$2238hhhhjhhhhhjhhhhjhhhhhhhhhhhhhhkfssa2:::#..WWWWW",
"WWWWWWWW   %gjjhhhhhhhhhhhhhhhhhhhhhhhhhhhhpee0&   WWWWWWWW",
"WWWWWWWW   %gjhhhhhhhhhhhhhhjhhhhhhhhhhhkhhpeee$   WWWWWWWW",
"WWWWWWWW   *hjjjhhhhhhhhhhhhhhhhhhhhhhhhjhhpeee$   WWWWWWWW",
"WWWWWWWWW  $1118hhhhhhhhhhhhhhhhhjhhhhhfsas2:::$   WWWWWWWW",
"WWWWWWWWWWWW   *ghhhhhhhhhhhhhhhhhhhhhhtee0%   WWWWWWWWWWWW",
"WWWWWWWWWWWW   *hhhhhhhhhhhhhhhhhhhhhhhteee%   WWWWWWWWWWWW",
"WWWWWWWWWWWW   *hjjhhhhhhhhhhhhhhhhhjjjteee%   WWWWWWWWWWWW",
"WWWWWWWWWWWWWWW%,,,7hhhhhhhhjhhhhhhfdda2---&WWWWWWWWWWWWWWW",
"WWWWWWWWWWWWWWWW   -hhhhhhhhhhhhhhkdeee*   WWWWWWWWWWWWWWWW",
"WWWWWWWWWWWWWWWW   -hhhhhhjhhhhhhhhteee*   WWWWWWWWWWWWWWWW",
"WWWWWWWWWWWWWWWW   -hjjhhhhhhhhhjjhdeee=   WWWWWWWWWWWWWWWW",
"WWWWWWWWWWWWWWWWWWW*,>>7hhhhhhhfdad2---$WWWWWWWWWWWWWWWWWWW",
"WWWWWWWWWWWWWWWWWWWW   ;hhhhhhha0ee=   WWWWWWWWWWWWWWWWWWWW",
"WWWWWWWWWWWWWWWWWWWW   ;hhhhhhhaeee=   WWWWWWWWWWWWWWWWWWWW",
"WWWWWWWWWWWWWWWWWWWW   ;jjhhhhkaeee-   WWWWWWWWWWWWWWWWWWWW",
"WWWWWWWWWWWWWWWWWWWWWWW%;;;5pdd2***&WWWWWWWWWWWWWWWWWWWWWWW",
"WWWWWWWWWWWWWWWWWWWWWWWW   =eee;   WWWWWWWWWWWWWWWWWWWWWWWW",
"WWWWWWWWWWWWWWWWWWWWWWWW   -eee;   WWWWWWWWWWWWWWWWWWWWWWWW",
"WWWWWWWWWWWWWWWWWWWWWWWW   -eee;   WWWWWWWWWWWWWWWWWWWWWWWW",
"WWWWWWWWWWWWWWWWWWWWWWWWWWW$***&WWWWWWWWWWWWWWWWWWWWWWWWWWW",
"WWWWWWWWWWWWWWWWWWWWWWWWWWWW   WWWWWWWWWWWWWWWWWWWWWWWWWWWW",
"WWWWWWWWWWWWWWWWWWWWWWWWWWWW   WWWWWWWWWWWWWWWWWWWWWWWWWWWW",
"WWWWWWWWWWWWWWWWWWWWWWWWWWWWWWWWWWWWWWWWWWWWWWWWWWWWWWWWWWW",
"WWWWWWWWWWWWWWWWWWWWWWWWWWWWWWWWWWWWWWWWWWWWWWWWWWWWWWWWWWW",
"WWWWWWWWWWWWWWWWWWWWWWWWWWWWWWWWWWWWWWWWWWWWWWWWWWWWWWWWWWW",
"WWWWWWWWWWWWWWWWWWWWWWWWWWWWWWWWWWWWWWWWWWWWWWWWWWWWWWWWWWW",
"WWWWWWWWWWWWWWWWWWWWWWWWWWWWWWWWWWWWWWWWWWWWWWWWWWWWWWWWWWW",
"WWWWWWWWWWWWWWWWWWWWWWWWWWWWWWWWWWWWWWWWWWWWWWWWWWWWWWWWWWW"
};
