/* XPM */
static char *result[] = {
/* columns rows colors chars-per-pixel */
"60 60 172 2 ",
"   c #020203",
".  c #080807",
"X  c #0C0C0C",
"o  c #050709",
"O  c #110E0D",
"+  c #1A0F09",
"@  c #10100F",
"#  c #1F120A",
"$  c #141413",
"%  c #181817",
"&  c #17191A",
"*  c #1C1C1B",
"=  c #191210",
"-  c #22140B",
";  c #26150B",
":  c #341A0A",
">  c #391B08",
",  c #2B1C13",
"<  c #231811",
"1  c #1F201F",
"2  c #21201E",
"3  c #38291E",
"4  c #262624",
"5  c #282826",
"6  c #2D2D2B",
"7  c #31312F",
"8  c #2B2E30",
"9  c #2E3133",
"0  c #343433",
"q  c #393936",
"w  c #363A3D",
"e  c #3A3C3C",
"r  c #451D05",
"t  c #451E08",
"y  c #4D2005",
"u  c #4A230B",
"i  c #47230B",
"p  c #552406",
"a  c #5E2A08",
"s  c #55280B",
"d  c #412616",
"f  c #492B17",
"g  c #5B2E10",
"h  c #56341C",
"j  c #543117",
"k  c #652D09",
"l  c #6E3009",
"z  c #643A1C",
"x  c #603013",
"c  c #703F1B",
"v  c #723A15",
"b  c #4C3020",
"n  c #413B38",
"m  c #613A21",
"M  c #75401D",
"N  c #47413D",
"B  c #694326",
"V  c #7E4923",
"C  c #3A3D41",
"Z  c #3E4143",
"A  c #464541",
"S  c #43464A",
"D  c #474B4F",
"F  c #4B4D4C",
"G  c #494844",
"H  c #544B44",
"J  c #55524E",
"K  c #5E5147",
"L  c #4B4F53",
"P  c #464A50",
"I  c #4E5257",
"U  c #54595E",
"Y  c #585A5B",
"T  c #735E4D",
"R  c #67645F",
"E  c #69655F",
"W  c #7E6A58",
"Q  c #565C62",
"!  c #676661",
"~  c #696661",
"^  c #6B6A64",
"/  c #62686E",
"(  c #706D67",
")  c #7F7060",
"_  c #75736C",
"`  c #79746B",
"'  c #656C72",
"]  c #6D747B",
"[  c #6F787F",
"{  c #697077",
"}  c #7D7B73",
"|  c #A3571F",
" . c #854C24",
".. c #8E562B",
"X. c #965629",
"o. c #A35721",
"O. c #A35B25",
"+. c #A85B24",
"@. c #AB6128",
"#. c #B9672B",
"$. c #C26B2B",
"%. c #D4732A",
"&. c #DA762C",
"*. c #EB7E2E",
"=. c #835C46",
"-. c #816F5E",
";. c #867B6E",
":. c #8C7E6F",
">. c #807E77",
",. c #EE802E",
"<. c #F2822D",
"1. c #858379",
"2. c #88867E",
"3. c #828077",
"4. c #7A838B",
"5. c #8E8C84",
"6. c #958F84",
"7. c #959389",
"8. c #99968B",
"9. c #9C998E",
"0. c #838E97",
"q. c #8A949E",
"w. c #9E9C93",
"e. c #A4948E",
"r. c #A29C93",
"t. c #A4A296",
"y. c #A7A599",
"u. c #AAA59C",
"i. c #ADAA9E",
"p. c #8C98A1",
"a. c #939DA8",
"s. c #96A2AE",
"d. c #99A5B1",
"f. c #B1AFA1",
"g. c #B5B3A6",
"h. c #B8B5A7",
"j. c #BAB7A9",
"k. c #BEBBAD",
"l. c #B7B5A8",
"z. c #A3B2BE",
"x. c #C1BDAE",
"c. c #C9C5B5",
"v. c #CDC9BA",
"b. c #C7C3B3",
"n. c #D1CEBE",
"m. c #ABB9C6",
"M. c #AEBDCD",
"N. c #B0BFCE",
"B. c #B2C1CF",
"V. c #B5C5D5",
"C. c #B9CADA",
"Z. c #B7C8D8",
"A. c #BECFE1",
"S. c #BFD1E3",
"D. c #D6D2C1",
"F. c #DED9C7",
"G. c #DFDBC9",
"H. c #DCD7C6",
"J. c #E2DDCB",
"K. c #E7E1CF",
"L. c #EAE5D1",
"P. c #EFEAD4",
"I. c #F1EBD7",
"U. c #F4EED8",
"Y. c #F6F0DB",
"T. c #F8F2DC",
"R. c #C1D3E5",
"E. c #C5D7EB",
"W. c #C6D8EC",
"Q. c #C8DAEE",
"!. c #F9F5E9",
"~. c None",
/* pixels */
"~.~.~.~.~.~.~.~.~.~.~.~.~.~.~.~.~.~.~.~.~.~.~.~.~.~.~.~.~.~.~.~.~.~.~.~.~.~.~.~.~.~.~.~.~.~.~.~.~.~.~.~.~.~.~.~.~.~.~.~.",
"~.~.~.~.~.~.~.~.~.~.~.~.~.~.~.~.~.~.~.~.~.~.~.~.~.~.~.~.~.~.~.~.~.~.~.~.~.~.~.~.~.~.~.~.~.~.~.~.~.~.~.~.~.~.~.~.~.~.~.~.",
"~.~.~.~.~.~.~.~.~.~.~.~.~.~.~.~.~.~.~.~.~.~.~.~.~.~.~.~.~.~.~.~.~.~.~.~.~.~.~.~.~.~.~.~.~.~.~.~.~.~.~.~.~.~.~.~.~.~.~.~.",
"~.~.~.~.~.~.~.~.~.~.~.~.~.~.~.~.~.~.~.~.~.~.~.~.~.~.~.~.~.~.~.~.~.~.~.~.~.~.~.~.~.~.~.~.~.~.~.~.~.~.~.~.~.~.~.~.~.~.~.~.",
"~.~.~.~.~.~.~.~.~.~.~.~.~.~.~.~.~.~.~.~.~.~.~.~.~.~.~.~.~.~.~.~.~.~.~.~.~.~.~.~.~.~.~.~.~.~.~.~.~.~.~.~.~.~.~.~.~.~.~.~.",
"~.~.~.~.~.~.~.~.~.* ~.~.~.~.~.~.~.~.~.~.~.~.~.~.~.~.~.~.~.~.~.~.~.~.~.~.~.~.~.~.~.~.~.~.~.~.~.~.~.~.~.~.~.~.~.~.~.~.~.~.",
"~.~.~.~.~.~.~.~.D ] X ~.~.~.~.~.~.~.~.~.~.~.~.~.~.~.~.~.~.~.~.~.~.~.~.~.~.~.~.~.~.~.~.~.~.~.~.~.~.~.~.~.~.~.~.~.~.~.~.~.",
"~.~.~.~.~.~.~.~.' a.4 ~.~.~.~.~.~.~.~.~.~.~.~.~.~.~.~.~.~.~.~.~.~.~.~.~.~.~.~.~.~.~.~.~.~.~.~.~.~.~.~.~.~.~.~.~.~.~.~.~.",
"~.~.~.~.~.~.~.C C.E.q.Z ~.~.~.~.~.~.~.~.~.~.~.~.~.~.~.~.~.~.~.~.~.~.~.~.~.~.~.~.~.~.~.~.~.~.~.~.~.~.~.~.~.~.~.~.~.~.~.~.",
"~.~.~.~.~.~.~.C A.E.W./ ~.~.~.~.~.~.~.~.~.~.~.~.~.~.~.~.~.~.~.~.~.~.~.~.~.~.~.~.~.~.~.~.~.~.~.~.~.~.~.~.~.~.~.~.~.~.~.~.",
"~.~.~.~.~.~.~.4.R.E.W.a.S ~.~.~.~.~.~.~.~.~.~.~.~.~.~.~.~.~.~.~.~.~.~.~.~.~.~.~.~.~.~.~.~.~.~.~.~.~.~.~.~.~.~.~.~.~.~.~.",
"~.~.~.~.~.~.9 Z.W.E.E.Q.U ~.~.~.~.~.~.~.~.~.~.~.~.~.~.~.~.~.~.~.~.~.~.~.~.~.~.~.~.~.~.~.~.~.~.~.~.~.~.~.~.~.~.~.~.~.~.~.",
"~.~.~.~.~.~.9 Z.W.E.E.W.U ~.~.~.~.~.~.~.~.~.~.~.~.~.~.~.~.~.~.~.~.~.~.~.~.~.~.~.~.~.~.~.~.~.~.~.~.~.~.~.~.~.~.~.~.~.~.~.",
"~.~.~.~.~.~.9 Z.E.E.E.W.Q X ~.~.~.~.~.~.~.~.~.~.~.~.~.~.~.~.~.~.~.~.~.~.~.~.~.~.~.~.~.~.~.~.~.~.~.~.~.~.~.~.~.~.~.~.~.~.",
"~.~.~.~.~.~.9 Z.W.E.E.E.m.w ~.~.~.~.~.~.~.~.~.~.~.~.~.~.~.~.~.~.~.~.~.~.~.~.~.~.~.~.~.~.~.~.~.~.~.~.~.~.~.~.~.~.~.~.~.~.",
"~.~.~.~.~.~.0 m.E.E.E.E.E.U O ~.~.~.~.~.~.~.~.~.~.~.~.~.~.~.~.~.~.~.~.~.~.~.~.~.~.~.~.~.~.~.~.~.~.~.~.~.~.~.~.~.~.~.~.~.",
"~.~.~.~.~.~.~.I A.E.E.E.W.B.w ~.~.~.~.~.~.~.~.~.~.~.~.~.~.~.~.~.~.~.~.~.~.~.~.~.~.~.~.~.~.~.~.~.~.~.~.~.~.~.~.~.~.~.~.~.",
"~.~.~.~.~.~.~.w A.W.E.E.W.A.w ~.~.~.~.~.~.~.~.~.~.~.~.~.~.~.~.~.~.~.~.~.~.~.~.~.~.~.~.~.~.~.~.~.~.~.~.~.~.~.~.~.~.~.~.~.",
"~.~.~.~.~.~.~.C S.W.E.E.E.R.{ ~.~.~.~.~.~.~.~.~.~.~.~.~.~.~.~.~.~.~.~.~.~.~.~.~.~.~.~.~.~.~.~.~.~.~.~.~.~.~.~.~.~.~.~.~.",
"~.~.~.~.~.~.~.4 p.E.E.E.E.W.Z.8 ~.~.~.~.~.~.~.~.~.~.~.~.~.~.$ $ $ $ @ @ $ $ $ $ ~.~.~.~.~.~.~.~.~.~.~.~.~.~.~.~.~.~.~.~.",
"~.~.~.~.~.~.~.X S R.W.E.E.W.Z.9 ~.~.~.~.~.~.~.~.~.~.~.~.$ $ * 5 5 4 5 4 5 5 4 1 $ X ~.~.~.~.~.~.~.~.~.~.~.~.~.~.~.~.~.~.",
"~.~.~.~.~.~.~.~.P R.E.E.E.W.Z.8 X ~.~.~.~.~.~.~.~.* $ $ * 5 5 5 5 4 4 4 2 5 2 4 5 * $ $ ~.~.~.~.~.~.~.~.~.~.~.~.~.~.~.~.",
"~.~.~.~.~.~.~.~.P E.E.E.E.W.R.0.* ~.~.~.~.~.~.~.X $ & * 4 4 5 4 5 4 1 % % % % 1 4 5 4 * @ ~.~.~.~.~.~.~.~.~.~.~.~.~.~.~.",
"~.~.~.~.~.~.~.~.D C.E.E.E.E.W.M.4 ~.~.~.~.~.~.$ $ q i.1.$ 4 4 4 5 2 7 t.h.l.j.E * 4 5 4 * $ ~.~.~.~.~.~.~.~.~.~.~.~.~.~.",
"~.~.~.~.~.~.~.~.~.{ W.E.E.E.W.V.w ~.~.~.~.~.X % 0 k.T.h.4 4 4 4 2 0 f.U.T.T.T.G.~ * 4 5 4 * $ ~.~.~.~.~.~.~.~.~.~.~.~.~.",
"~.~.~.~.~.~.~.~.~.U E.E.E.E.E.E.d.4 ~.~.~.% $ 0 j.U.U.I.2.$ 4 4 % t.U.U.U.U.U.Y.J.R 2 5 4 4 * $ ~.~.~.~.~.~.~.~.~.~.~.~.",
"~.~.~.~.~.~.~.~.~.Q W.E.E.E.E.W.z.% ~.~.~.$ q j.Y.T.U.T.g.6 2 2 q c.U.U.U.U.U.U.T.F.q * 5 4 * o ~.~.~.~.~.~.~.~.~.~.~.~.",
"~.~.~.~.~.~.~.~.~.I m.E.E.E.E.W.M.I ~.~.o 6 g.b.u.h.I.U.U.1.$ $ t.U.U.U.U.T.T.Y.I.P._ 2 4 4 1 $ ~.~.~.~.~.~.~.~.~.~.~.~.",
"~.~.~.~.~.~.~.~.~.~.' Q.E.E.E.E.W.s.% ~.  5.g.5   * w.U.D.J o X i.T.T.U.J.9.8.c.T.U.G.7 1 5 4 & $ ~.~.~.~.~.~.~.~.~.~.~.",
"~.~.~.~.~.~.~.~.~.~.' Q.E.E.E.E.Q.d.@ X q k.9.%   @ 2.n.-.c c B ) 5.K.K.^ .   N c.T.K.0 < 5 5 & X ~.~.~.~.~.~.~.~.~.~.~.",
"~.~.~.~.~.~.~.~.~.~.L d.W.E.E.E.Q.d.X   } T.I.r.3.8.v.W @.<.<.<.+.V 3.n.^ .   N b.Y.K.7 * 5 5 % @ ~.~.~.~.~.~.~.~.~.~.~.",
"~.~.~.~.~.~.~.~.~.~.~.[ Q.W.E.E.E.s.X   } T.I.T.T.T.J.:.z z z z z V 2.L.G.9.7.b.T.U.K.7 * 4 5 4 % ~.~.~.~.~.~.~.~.~.~.~.",
"~.~.~.~.~.~.~.~.~.~.~.[ R.R.R.N.Q N : G n.U.U.U.U.U.Y.J.u.u.u.t.y.i.L.U.T.T.T.T.I.U.F.7 1 4 4 5 $ ~.~.~.~.~.~.~.~.~.~.~.",
"~.~.~.~.~.~.~.~.~.~.~.Z w e e n s x r ^ Y.U.U.U.U.U.U.U.Y.Y.T.T.T.T.U.U.I.Y.U.U.U.K.! 2 4 4 4 4 $ ~.~.~.~.~.~.~.~.~.~.~.",
"~.~.~.~.~.~.~.~.~.~.~.~.X > p a =.e.i ~ Y.U.U.U.U.U.U.U.U.U.U.U.U.U.U.U.Y.L.D.D.n.E 2 4 4 4 4 5 $ ~.~.~.~.~.~.~.~.~.~.~.",
"~.~.~.~.~.~.~.~.~.~.~.~.~.- a v u.e.i ~ Y.U.U.U.U.U.U.U.U.U.U.U.U.U.U.U.L.7.5 4 5 2 4 5 4 5 4 5 * $ ~.~.~.~.~.~.~.~.~.~.",
"~.~.~.~.~.~.~.~.~.~.~.~.~.= i g z v r ! T.U.I.U.U.U.U.U.U.U.U.U.U.U.U.T.v.N * 4 2 4 4 4 5 4 4 4 4 $ ~.~.~.~.~.~.~.~.~.~.",
"~.~.~.~.~.~.~.~.~.~.~.~.~.~.O 2 3 k b 7.U.U.U.U.U.U.U.U.U.I.U.U.U.U.U.U.T.w.$ 4 4 4 4 4 4 4 4 5 5 $ ~.~.~.~.~.~.~.~.~.~.",
"~.~.~.~.~.~.~.~.~.~.~.~.~.~.X * 3 y J P.U.U.U.U.U.U.U.U.U.U.U.U.U.U.U.U.T.t.$ * 2 4 4 4 4 2 1 2 5 $ ~.~.~.~.~.~.~.~.~.~.",
"~.~.~.~.~.~.~.~.~.~.~.~.~.~.X 2 f y J U.U.U.U.U.U.U.U.U.U.U.U.U.U.U.U.U.T.t.$ * $ 2 5 4 5 1 @ 5 5 $ ~.~.~.~.~.~.~.~.~.~.",
"~.~.~.~.~.~.~.~.~.~.~.~.~.~.~.< k y J I.U.U.U.U.U.U.U.U.U.U.U.U.U.U.U.U.Y.n.Y 1 @ * 5 4 5 1 X 2 5 $ ~.~.~.~.~.~.~.~.~.~.",
"~.~.~.~.~.~.~.~.~.~.~.~.~.~.~.# k p J I.U.U.U.U.U.U.U.U.U.U.U.U.U.U.U.U.U.T.6.@ @ * 4 5 4 1 @ 5 5 $ ~.~.~.~.~.~.~.~.~.~.",
"~.~.~.~.~.~.~.~.~.~.~.~.~.~.~.~.: r J I.U.U.U.U.U.U.U.U.U.U.U.U.U.U.U.U.U.T.7.1 1 @ 2 4 2 @ 1 2 5 $ ~.~.~.~.~.~.~.~.~.~.",
"~.~.~.~.~.~.~.~.~.~.~.~.~.~.~.~.- r J U.U.U.U.U.U.U.U.U.U.U.U.U.U.U.U.U.U.Y.K.R % @ * 1 @ 1 5 5 5 $ ~.~.~.~.~.~.~.~.~.~.",
"~.~.~.~.~.~.~.~.~.~.~.~.~.~.~.~.- y H H.U.U.U.U.U.U.U.U.U.U.U.U.U.U.U.U.U.U.T.} % 2 @ @ X 2 5 5 4 4 $ ~.~.~.~.~.~.~.~.~.",
"~.~.~.~.~.~.~.~.~.~.~.~.~.~.~.~.- k i _ Y.U.U.U.U.U.U.U.U.U.U.U.U.U.U.U.U.U.T.} $ 5 2 2 2 5 5 5 5 4 4 $ ~.~.~.~.~.~.~.~.",
"~.~.~.~.~.~.~.~.~.~.~.~.~.~.~.~.# k p K n.U.U.U.U.U.U.U.U.U.U.U.U.U.U.U.U.U.T.} $ 5 5 5 5 5 5 5 4 5 4 4 * ~.~.~.~.~.~.~.",
"~.~.~.~.~.~.~.~.~.~.~.~.~.~.~.~.< u l t ;.T.U.U.U.U.U.U.U.U.U.U.U.U.U.U.U.U.T.} @ 5 5 5 2 5 5 2 5 4 4 5 * $ ~.~.~.~.~.~.",
"~.~.~.~.~.~.~.~.~.~.~.~.~.~.~.~.~., t - A c.Y.U.U.U.U.U.U.U.U.U.U.U.U.U.U.Y.c.F * 4 4 4 4 4 4 4 4 4 4 % X ~.~.~.~.~.~.~.",
"~.~.~.~.~.~.~.~.~.~.~.~.~.~.~.~.~.~.~.X d W v.Y.U.U.U.U.U.U.U.U.U.U.Y.!.!.T.5.$ 5 4 4 5 4 4 4 4 5 4 * . X ~.~.~.~.~.~.~.",
"~.~.~.~.~.~.~.~.~.~.~.~.~.~.~.~.~.~.~.h $.#.T ( n.U.U.U.U.U.U.U.U.K.} R ! R n % 4 4 5 5 4 4 4 5 4 * X X ~.~.~.~.~.~.~.~.",
"~.~.~.~.~.~.~.~.~.~.~.~.~.~.~.~.~.~.~.< h h  .X.K ^ J.L.L.L.L.I.L.;.X.| o.| @.m * 4 4 5 4 4 * X X $ ~.~.~.~.~.~.~.~.~.~.",
"~.~.~.~.~.~.~.~.~.~.~.~.~.~.~.~.~.~.~.~.~.~.d f O ~.G G A A A y.` ..&.<.<.,.,.&.z @ @ @ @ X $ ~.~.~.~.~.~.~.~.~.~.~.~.~.",
"~.~.~.~.~.~.~.~.~.~.~.~.~.~.~.~.~.~.~.~.~.~.~.~.~.~.~.~.~.~.~.q $ ; f $.%.O.V %.#.d ~.~.~.~.~.~.~.~.~.~.~.~.~.~.~.~.~.~.",
"~.~.~.~.~.~.~.~.~.~.~.~.~.~.~.~.~.~.~.~.~.~.~.~.~.~.~.~.~.~.~.~.X o ~., , , ~., , = ~.~.~.~.~.~.~.~.~.~.~.~.~.~.~.~.~.~.",
"~.~.~.~.~.~.~.~.~.~.~.~.~.~.~.~.~.~.~.~.~.~.~.~.~.~.~.~.~.~.~.~.~.~.~.~.~.~.~.~.~.~.~.~.~.~.~.~.~.~.~.~.~.~.~.~.~.~.~.~.",
"~.~.~.~.~.~.~.~.~.~.~.~.~.~.~.~.~.~.~.~.~.~.~.~.~.~.~.~.~.~.~.~.~.~.~.~.~.~.~.~.~.~.~.~.~.~.~.~.~.~.~.~.~.~.~.~.~.~.~.~.",
"~.~.~.~.~.~.~.~.~.~.~.~.~.~.~.~.~.~.~.~.~.~.~.~.~.~.~.~.~.~.~.~.~.~.~.~.~.~.~.~.~.~.~.~.~.~.~.~.~.~.~.~.~.~.~.~.~.~.~.~.",
"~.~.~.~.~.~.~.~.~.~.~.~.~.~.~.~.~.~.~.~.~.~.~.~.~.~.~.~.~.~.~.~.~.~.~.~.~.~.~.~.~.~.~.~.~.~.~.~.~.~.~.~.~.~.~.~.~.~.~.~.",
"~.~.~.~.~.~.~.~.~.~.~.~.~.~.~.~.~.~.~.~.~.~.~.~.~.~.~.~.~.~.~.~.~.~.~.~.~.~.~.~.~.~.~.~.~.~.~.~.~.~.~.~.~.~.~.~.~.~.~.~."
};
