/* XPM */
static char *result[] = {
/* columns rows colors chars-per-pixel */
"60 60 165 2 ",
"   c #020203",
".  c #080807",
"X  c #0C0C0C",
"o  c #070708",
"O  c #110E0D",
"+  c #190F09",
"@  c #1D110B",
"#  c #16120F",
"$  c #141413",
"%  c #181817",
"&  c #171919",
"*  c #1C1C1B",
"=  c #171717",
"-  c #22140C",
";  c #26140A",
":  c #361909",
">  c #251912",
",  c #2B1C11",
"<  c #1F201F",
"1  c #21201E",
"2  c #3A281B",
"3  c #1F2021",
"4  c #262624",
"5  c #282826",
"6  c #2D2E2D",
"7  c #31312F",
"8  c #2E3133",
"9  c #343432",
"0  c #393936",
"q  c #373A3D",
"w  c #3C3B3C",
"e  c #34373A",
"r  c #451D05",
"t  c #451E07",
"y  c #4D2005",
"u  c #4A230B",
"i  c #47230A",
"p  c #552405",
"a  c #572809",
"s  c #452916",
"d  c #4E2D16",
"f  c #422514",
"g  c #5B2E10",
"h  c #4C301F",
"j  c #56341B",
"k  c #543117",
"l  c #642D08",
"z  c #6E3008",
"x  c #643A1B",
"c  c #683716",
"v  c #713D18",
"b  c #413B37",
"n  c #613A20",
"m  c #75401D",
"M  c #47413D",
"N  c #694325",
"B  c #7E4923",
"V  c #3B3E41",
"C  c #3E4144",
"Z  c #454542",
"A  c #464A4F",
"S  c #484948",
"D  c #544A43",
"F  c #55524D",
"G  c #5E5147",
"H  c #4B4F53",
"J  c #4D5155",
"K  c #53595E",
"L  c #585A5A",
"P  c #735D4C",
"I  c #66645F",
"U  c #69655F",
"Y  c #7E6957",
"T  c #565C62",
"R  c #676662",
"E  c #686661",
"W  c #6C6A64",
"Q  c #61686E",
"!  c #716D66",
"~  c #7F7060",
"^  c #75736C",
"/  c #79746B",
"(  c #646A71",
")  c #686F76",
"_  c #697077",
"`  c #6F787F",
"'  c #6F777F",
"]  c #7D7A73",
"[  c #A3571F",
"{  c #864C23",
"}  c #8E562B",
"|  c #965629",
" . c #A35721",
".. c #A45B25",
"X. c #AB6028",
"o. c #B9662A",
"O. c #C26B2A",
"+. c #D4722A",
"@. c #DA762C",
"#. c #ED7F2E",
"$. c #835C46",
"%. c #816F5D",
"&. c #867B6E",
"*. c #8C7E6F",
"=. c #807F77",
"-. c #F3822D",
";. c #85837A",
":. c #88867E",
">. c #828077",
",. c #7A828B",
"<. c #8E8C84",
"1. c #948F84",
"2. c #959289",
"3. c #99968B",
"4. c #9C998E",
"5. c #838D97",
"6. c #89949E",
"7. c #9E9C92",
"8. c #A5948E",
"9. c #A29C93",
"0. c #A4A296",
"q. c #A7A599",
"w. c #AAA59C",
"e. c #ADAA9E",
"r. c #8C98A2",
"t. c #939DA8",
"y. c #96A2AE",
"u. c #99A5B2",
"i. c #97A4B1",
"p. c #B1AEA1",
"a. c #B5B2A6",
"s. c #B8B5A7",
"d. c #BAB7A9",
"f. c #BAB7AA",
"g. c #A3B1BE",
"h. c #C1BDAE",
"j. c #C9C5B5",
"k. c #CCC9BA",
"l. c #C7C3B3",
"z. c #D1CEBE",
"x. c #AAB9C6",
"c. c #ADBBCB",
"v. c #B0BFCE",
"b. c #B1C0CF",
"n. c #B5C6D6",
"m. c #B9C9D9",
"M. c #BECFE1",
"N. c #BFD1E2",
"B. c #D6D2C1",
"V. c #DFDAC8",
"C. c #DDD8C7",
"Z. c #E2DDCB",
"A. c #E7E1CF",
"S. c #EAE5D1",
"D. c #EFEAD5",
"F. c #F1EBD7",
"G. c #F4EED8",
"H. c #F6F1DA",
"J. c #F8F2DC",
"K. c #C2D3E5",
"L. c #C5D7EB",
"P. c #C6D8EC",
"I. c #C8DAEE",
"U. c #F9F5EA",
"Y. c None",
/* pixels */
"Y.Y.Y.Y.Y.Y.Y.Y.Y.Y.Y.Y.Y.Y.Y.Y.Y.Y.Y.Y.Y.Y.Y.Y.Y.Y.Y.Y.Y.Y.Y.Y.Y.Y.Y.Y.Y.Y.Y.Y.Y.Y.Y.Y.Y.Y.Y.Y.Y.Y.Y.Y.Y.Y.Y.Y.Y.Y.Y.Y.",
"Y.Y.Y.Y.Y.Y.Y.Y.Y.Y.Y.Y.Y.Y.Y.Y.Y.Y.Y.Y.Y.Y.Y.Y.Y.Y.Y.Y.Y.Y.Y.Y.Y.Y.Y.Y.Y.Y.Y.Y.Y.Y.Y.Y.Y.Y.Y.Y.Y.Y.Y.Y.Y.Y.Y.Y.Y.Y.Y.Y.",
"Y.Y.Y.Y.Y.Y.Y.Y.Y.Y.Y.Y.Y.Y.Y.Y.Y.Y.Y.Y.Y.Y.Y.Y.Y.Y.Y.Y.Y.Y.Y.Y.Y.Y.Y.Y.Y.Y.Y.Y.Y.Y.Y.Y.Y.Y.Y.Y.Y.Y.Y.Y.Y.Y.Y.Y.Y.Y.Y.Y.",
"Y.Y.Y.Y.Y.Y.Y.Y.Y.Y.Y.Y.Y.Y.Y.Y.Y.Y.Y.Y.Y.Y.Y.Y.Y.Y.Y.Y.Y.Y.Y.Y.Y.Y.Y.Y.Y.Y.Y.Y.Y.Y.Y.Y.Y.Y.Y.Y.Y.Y.Y.Y.Y.Y.Y.Y.Y.Y.Y.Y.",
"Y.Y.Y.Y.Y.Y.Y.Y.Y.Y.Y.Y.Y.Y.Y.Y.Y.Y.Y.Y.Y.Y.Y.Y.Y.Y.Y.Y.Y.Y.Y.Y.Y.Y.Y.Y.Y.Y.Y.Y.Y.Y.Y.Y.Y.Y.Y.Y.Y.Y.Y.Y.Y.Y.Y.Y.Y.Y.Y.Y.",
"Y.Y.Y.Y.Y.Y.Y.Y.Y.Y.Y.Y.Y.Y.Y.Y.Y.Y.Y.Y.Y.Y.Y.Y.Y.Y.Y.Y.Y.Y.Y.Y.Y.Y.Y.Y.Y.Y.Y.Y.Y.Y.Y.Y.Y.Y.Y.Y.Y.Y.& Y.Y.Y.Y.Y.Y.Y.Y.Y.",
"Y.Y.Y.Y.Y.Y.Y.Y.Y.Y.Y.Y.Y.Y.Y.Y.Y.Y.Y.Y.Y.Y.Y.Y.Y.Y.Y.Y.Y.Y.Y.Y.Y.Y.Y.Y.Y.Y.Y.Y.Y.Y.Y.Y.Y.Y.Y.Y.Y.X _ C Y.Y.Y.Y.Y.Y.Y.Y.",
"Y.Y.Y.Y.Y.Y.Y.Y.Y.Y.Y.Y.Y.Y.Y.Y.Y.Y.Y.Y.Y.Y.Y.Y.Y.Y.Y.Y.Y.Y.Y.Y.Y.Y.Y.Y.Y.Y.Y.Y.Y.Y.Y.Y.Y.Y.Y.Y.Y.4 t._ Y.Y.Y.Y.Y.Y.Y.Y.",
"Y.Y.Y.Y.Y.Y.Y.Y.Y.Y.Y.Y.Y.Y.Y.Y.Y.Y.Y.Y.Y.Y.Y.Y.Y.Y.Y.Y.Y.Y.Y.Y.Y.Y.Y.Y.Y.Y.Y.Y.Y.Y.Y.Y.Y.Y.Y.Y.V 6.L.m.V Y.Y.Y.Y.Y.Y.Y.",
"Y.Y.Y.Y.Y.Y.Y.Y.Y.Y.Y.Y.Y.Y.Y.Y.Y.Y.Y.Y.Y.Y.Y.Y.Y.Y.Y.Y.Y.Y.Y.Y.Y.Y.Y.Y.Y.Y.Y.Y.Y.Y.Y.Y.Y.Y.Y.Y.( I.L.M.q Y.Y.Y.Y.Y.Y.Y.",
"Y.Y.Y.Y.Y.Y.Y.Y.Y.Y.Y.Y.Y.Y.Y.Y.Y.Y.Y.Y.Y.Y.Y.Y.Y.Y.Y.Y.Y.Y.Y.Y.Y.Y.Y.Y.Y.Y.Y.Y.Y.Y.Y.Y.Y.Y.Y.Z t.I.L.K.,.Y.Y.Y.Y.Y.Y.Y.",
"Y.Y.Y.Y.Y.Y.Y.Y.Y.Y.Y.Y.Y.Y.Y.Y.Y.Y.Y.Y.Y.Y.Y.Y.Y.Y.Y.Y.Y.Y.Y.Y.Y.Y.Y.Y.Y.Y.Y.Y.Y.Y.Y.Y.Y.Y.Y.K I.L.L.L.m.8 Y.Y.Y.Y.Y.Y.",
"Y.Y.Y.Y.Y.Y.Y.Y.Y.Y.Y.Y.Y.Y.Y.Y.Y.Y.Y.Y.Y.Y.Y.Y.Y.Y.Y.Y.Y.Y.Y.Y.Y.Y.Y.Y.Y.Y.Y.Y.Y.Y.Y.Y.Y.Y.Y.K L.L.L.L.n.8 Y.Y.Y.Y.Y.Y.",
"Y.Y.Y.Y.Y.Y.Y.Y.Y.Y.Y.Y.Y.Y.Y.Y.Y.Y.Y.Y.Y.Y.Y.Y.Y.Y.Y.Y.Y.Y.Y.Y.Y.Y.Y.Y.Y.Y.Y.Y.Y.Y.Y.Y.Y.Y.X T L.L.L.I.m.8 Y.Y.Y.Y.Y.Y.",
"Y.Y.Y.Y.Y.Y.Y.Y.Y.Y.Y.Y.Y.Y.Y.Y.Y.Y.Y.Y.Y.Y.Y.Y.Y.Y.Y.Y.Y.Y.Y.Y.Y.Y.Y.Y.Y.Y.Y.Y.Y.Y.Y.Y.Y.Y.q x.L.L.L.L.m.8 Y.Y.Y.Y.Y.Y.",
"Y.Y.Y.Y.Y.Y.Y.Y.Y.Y.Y.Y.Y.Y.Y.Y.Y.Y.Y.Y.Y.Y.Y.Y.Y.Y.Y.Y.Y.Y.Y.Y.Y.Y.Y.Y.Y.Y.Y.Y.Y.Y.Y.Y.Y.X T L.L.L.L.L.x.9 Y.Y.Y.Y.Y.Y.",
"Y.Y.Y.Y.Y.Y.Y.Y.Y.Y.Y.Y.Y.Y.Y.Y.Y.Y.Y.Y.Y.Y.Y.Y.Y.Y.Y.Y.Y.Y.Y.Y.Y.Y.Y.Y.Y.Y.Y.Y.Y.Y.Y.Y.Y.e n.L.L.L.L.M.H Y.Y.Y.Y.Y.Y.Y.",
"Y.Y.Y.Y.Y.Y.Y.Y.Y.Y.Y.Y.Y.Y.Y.Y.Y.Y.Y.Y.Y.Y.Y.Y.Y.Y.Y.Y.Y.Y.Y.Y.Y.Y.Y.Y.Y.Y.Y.Y.Y.Y.Y.Y.Y.V m.I.L.L.P.M.q Y.Y.Y.Y.Y.Y.Y.",
"Y.Y.Y.Y.Y.Y.Y.Y.Y.Y.Y.Y.Y.Y.Y.Y.Y.Y.Y.Y.Y.Y.Y.Y.Y.Y.Y.Y.Y.Y.Y.Y.Y.Y.Y.Y.Y.Y.Y.Y.Y.Y.Y.Y.Y._ N.L.L.L.L.N.V Y.Y.Y.Y.Y.Y.Y.",
"Y.Y.Y.Y.Y.Y.Y.Y.Y.Y.Y.Y.Y.Y.Y.Y.Y.Y.Y.Y.O $ $ # $ O $ $ $ = Y.Y.Y.Y.Y.Y.Y.Y.Y.Y.Y.Y.Y.Y.8 n.I.L.L.L.L.r.4 Y.Y.Y.Y.Y.Y.Y.",
"Y.Y.Y.Y.Y.Y.Y.Y.Y.Y.Y.Y.Y.Y.Y.Y.Y.Y.X $ < 4 5 4 5 4 5 4 4 * = $ Y.Y.Y.Y.Y.Y.Y.Y.Y.Y.Y.Y.8 n.P.L.L.P.N.A . Y.Y.Y.Y.Y.Y.Y.",
"Y.Y.Y.Y.Y.Y.Y.Y.Y.Y.Y.Y.Y.Y.Y.Y.$ = * 4 4 4 1 4 4 4 4 5 4 4 4 * $ = = Y.Y.Y.Y.Y.Y.Y.Y.X 6 m.P.L.L.L.N.A Y.Y.Y.Y.Y.Y.Y.Y.",
"Y.Y.Y.Y.Y.Y.Y.Y.Y.Y.Y.Y.Y.Y.Y.O * 4 5 4 * % $ % = 1 4 4 4 4 4 4 * = = X Y.Y.Y.Y.Y.Y.Y.& 5.L.L.L.L.P.L.A Y.Y.Y.Y.Y.Y.Y.Y.",
"Y.Y.Y.Y.Y.Y.Y.Y.Y.Y.Y.Y.Y.Y.$ * 4 4 4 * W d.d.s.0.7 1 4 4 4 4 = ;.e.9 $ = Y.Y.Y.Y.Y.Y.4 c.I.L.L.L.P.m.A Y.Y.Y.Y.Y.Y.Y.Y.",
"Y.Y.Y.Y.Y.Y.Y.Y.Y.Y.Y.Y.Y.$ * 4 5 4 < E Z.H.J.J.G.p.7 4 4 4 4 4 a.J.d.7 % X Y.Y.Y.Y.Y.e v.I.L.L.L.L._ Y.Y.Y.Y.Y.Y.Y.Y.Y.",
"Y.Y.Y.Y.Y.Y.Y.Y.Y.Y.Y.Y.$ * 4 4 4 1 I Z.H.G.G.G.G.G.q.% 4 4 $ :.F.G.G.d.9 % = Y.Y.Y.3 y.L.L.L.L.L.L.K Y.Y.Y.Y.Y.Y.Y.Y.Y.",
"Y.Y.Y.Y.Y.Y.Y.Y.Y.Y.Y.Y.. % 5 4 < 0 V.G.G.G.G.G.G.H.j.0 4 1 6 e.J.G.J.J.d.0 O Y.Y.Y.& x.I.L.L.L.L.P.K Y.Y.Y.Y.Y.Y.Y.Y.Y.",
"Y.Y.Y.Y.Y.Y.Y.Y.Y.Y.Y.Y.$ < 4 4 1 ^ D.G.G.J.J.H.G.G.G.0.$ $ ;.G.G.F.s.w.h.d.6 . Y.Y.J c.L.L.L.L.P.x.J Y.Y.Y.Y.Y.Y.Y.Y.Y.",
"Y.Y.Y.Y.Y.Y.Y.Y.Y.Y.Y.X % 5 1 < 9 V.G.H.j.3.4.Z.H.G.J.q.X o J B.F.9.*   5 a.<.  Y.= y.L.L.L.L.L.I.( Y.Y.Y.Y.Y.Y.Y.Y.Y.Y.",
"Y.Y.Y.Y.Y.Y.Y.Y.Y.Y.Y.# < 5 5 < 9 A.H.l.M   . W A.A.<.~ m v m %.z.:.O   * 4.d.0 X $ i.I.L.L.L.L.I.( Y.Y.Y.Y.Y.Y.Y.Y.Y.Y.",
"Y.Y.Y.Y.Y.Y.Y.Y.Y.Y.Y.# % 1 5 1 7 A.H.l.M   . U z.&.B X.-.-.-.X.%.z.3.>.9.F.J.]   X i.I.L.L.L.I.u.J Y.Y.Y.Y.Y.Y.Y.Y.Y.Y.",
"Y.Y.Y.Y.Y.Y.Y.Y.Y.Y.Y.% 1 5 1 < 7 A.H.J.l.3.4.A.D.:.N c x c j N >.C.J.J.H.G.H.]   X i.L.L.L.I.I.' Y.Y.Y.Y.Y.Y.Y.Y.Y.Y.Y.",
"Y.Y.Y.Y.Y.Y.Y.Y.Y.Y.Y.% 5 4 4 < 9 V.G.G.G.J.J.H.G.S.p.q.q.q.q.q.V.J.G.G.G.G.G.z.M : b L v.K.K.K.' Y.Y.Y.Y.Y.Y.Y.Y.Y.Y.Y.",
"Y.Y.Y.Y.Y.Y.Y.Y.Y.Y.Y.$ 4 4 4 4 1 I A.G.H.G.G.G.G.G.H.J.J.J.J.J.H.G.G.G.G.G.G.J.I i c a b w w e C Y.Y.Y.Y.Y.Y.Y.Y.Y.Y.Y.",
"Y.Y.Y.Y.Y.Y.Y.Y.Y.Y.Y.% 5 4 4 4 4 < E z.z.z.F.H.G.G.G.G.G.G.G.G.G.G.G.G.G.G.G.H.I i 9.$.l p : . Y.Y.Y.Y.Y.Y.Y.Y.Y.Y.Y.Y.",
"Y.Y.Y.Y.Y.Y.Y.Y.Y.Y.$ % 4 4 4 4 5 5 1 5 5 5 3.S.G.G.G.G.G.G.G.G.G.G.G.G.G.G.G.H.I i 9.w.v a - Y.Y.Y.Y.Y.Y.Y.Y.Y.Y.Y.Y.Y.",
"Y.Y.Y.Y.Y.Y.Y.Y.Y.Y.$ 4 4 4 4 4 5 4 4 < < < M k.G.G.G.G.G.G.G.G.G.G.G.G.G.G.G.G.I r v n g i $ Y.Y.Y.Y.Y.Y.Y.Y.Y.Y.Y.Y.Y.",
"Y.Y.Y.Y.Y.Y.Y.Y.Y.Y.$ 4 5 4 4 4 4 4 4 4 5 $ 7.H.G.G.G.G.G.G.G.G.G.G.G.G.G.G.G.G.2.h l 2 > # Y.Y.Y.Y.Y.Y.Y.Y.Y.Y.Y.Y.Y.Y.",
"Y.Y.Y.Y.Y.Y.Y.Y.Y.Y.$ 4 4 * 4 4 4 4 4 < < $ 0.J.G.G.G.G.G.G.G.G.G.G.G.G.G.G.G.G.F.F y 2 3 X Y.Y.Y.Y.Y.Y.Y.Y.Y.Y.Y.Y.Y.Y.",
"Y.Y.Y.Y.Y.Y.Y.Y.Y.Y.$ 4 4 X < 4 4 4 < # < $ 0.J.G.G.G.G.G.G.G.G.G.G.G.G.G.G.G.G.F.F y d 1 X Y.Y.Y.Y.Y.Y.Y.Y.Y.Y.Y.Y.Y.Y.",
"Y.Y.Y.Y.Y.Y.Y.Y.Y.Y.$ 5 4 X * 4 5 5 % # * L z.J.G.G.G.G.G.G.G.G.G.G.G.G.G.G.G.G.F.F y l > Y.Y.Y.Y.Y.Y.Y.Y.Y.Y.Y.Y.Y.Y.Y.",
"Y.Y.Y.Y.Y.Y.Y.Y.Y.Y.$ 5 4 $ < 4 4 4 % $ # 2.J.G.G.G.G.G.G.G.G.G.G.G.G.G.G.G.G.G.F.F y l + Y.Y.Y.Y.Y.Y.Y.Y.Y.Y.Y.Y.Y.Y.Y.",
"Y.Y.Y.Y.Y.Y.Y.Y.Y.Y.$ 4 4 < # 1 4 1 $ 1 % 3.J.G.G.G.G.G.G.G.G.G.G.G.G.G.G.G.G.G.F.F r : Y.Y.Y.Y.Y.Y.Y.Y.Y.Y.Y.Y.Y.Y.Y.Y.",
"Y.Y.Y.Y.Y.Y.Y.Y.Y.Y.% 5 4 4 < O < % O = I A.H.G.G.G.G.G.G.G.G.G.G.G.G.G.G.G.G.G.G.F r - Y.Y.Y.Y.Y.Y.Y.Y.Y.Y.Y.Y.Y.Y.Y.Y.",
"Y.Y.Y.Y.Y.Y.Y.Y.Y.$ 4 4 4 4 1 X X $ 1 $ ] J.G.G.G.G.G.G.G.G.G.G.G.G.G.G.G.G.G.G.Z.D r - Y.Y.Y.Y.Y.Y.Y.Y.Y.Y.Y.Y.Y.Y.Y.Y.",
"Y.Y.Y.Y.Y.Y.Y.Y.% 4 4 4 4 4 4 4 1 4 5 $ ] H.G.G.G.G.G.G.G.G.G.G.G.G.G.G.G.F.G.J.^ u l + Y.Y.Y.Y.Y.Y.Y.Y.Y.Y.Y.Y.Y.Y.Y.Y.",
"Y.Y.Y.Y.Y.Y.Y.$ 4 4 4 5 4 5 4 4 4 5 4 $ ] H.G.G.G.G.G.G.G.G.G.G.G.G.G.G.G.G.G.B.G p l - Y.Y.Y.Y.Y.Y.Y.Y.Y.Y.Y.Y.Y.Y.Y.Y.",
"Y.Y.Y.Y.Y.Y.$ < 4 4 5 4 5 4 4 4 4 4 4 $ ] J.G.G.G.G.G.G.G.G.G.G.G.G.G.G.G.G.J.] t z a - Y.Y.Y.Y.Y.Y.Y.Y.Y.Y.Y.Y.Y.Y.Y.Y.",
"Y.Y.Y.Y.Y.Y.Y.X * 4 4 4 4 4 4 4 4 4 4 * S k.H.G.G.G.G.G.G.G.G.G.G.G.G.G.G.G.k.Z ; : , Y.Y.Y.Y.Y.Y.Y.Y.Y.Y.Y.Y.Y.Y.Y.Y.Y.",
"Y.Y.Y.Y.Y.Y.Y.O . * 5 4 5 4 4 4 4 4 4 4 $ 1.J.U.U.H.G.G.G.G.G.G.G.G.G.G.J.k.Y f X Y.Y.Y.Y.Y.Y.Y.Y.Y.Y.Y.Y.Y.Y.Y.Y.Y.Y.Y.",
"Y.Y.Y.Y.Y.Y.Y.Y.X . * 5 4 4 4 4 4 4 4 4 = b I E R ] A.G.G.G.G.G.G.G.G.B.! P o.O.j Y.Y.Y.Y.Y.Y.Y.Y.Y.Y.Y.Y.Y.Y.Y.Y.Y.Y.Y.",
"Y.Y.Y.Y.Y.Y.Y.Y.Y.Y.$ O X < 4 4 4 4 4 * x .. .[ [ | &.A.F.S.S.S.S.C.W G | { k d , Y.Y.Y.Y.Y.Y.Y.Y.Y.Y.Y.Y.Y.Y.Y.Y.Y.Y.Y.",
"Y.Y.Y.Y.Y.Y.Y.Y.Y.Y.Y.Y.Y.$ O O $ O O x @.#.-.-.-.@.} / q.Z Z Z Z Z Y.+ s s Y.Y.Y.Y.Y.Y.Y.Y.Y.Y.Y.Y.Y.Y.Y.Y.Y.Y.Y.Y.Y.Y.",
"Y.Y.Y.Y.Y.Y.Y.Y.Y.Y.Y.Y.Y.Y.Y.Y.Y.Y.f o.+.B | +.O.d ; $ 0 Y.Y.Y.Y.Y.Y.Y.Y.Y.Y.Y.Y.Y.Y.Y.Y.Y.Y.Y.Y.Y.Y.Y.Y.Y.Y.Y.Y.Y.Y.Y.",
"Y.Y.Y.Y.Y.Y.Y.Y.Y.Y.Y.Y.Y.Y.Y.Y.Y.Y.# , , Y., , , Y.o X Y.Y.Y.Y.Y.Y.Y.Y.Y.Y.Y.Y.Y.Y.Y.Y.Y.Y.Y.Y.Y.Y.Y.Y.Y.Y.Y.Y.Y.Y.Y.Y.",
"Y.Y.Y.Y.Y.Y.Y.Y.Y.Y.Y.Y.Y.Y.Y.Y.Y.Y.Y.Y.Y.Y.Y.Y.Y.Y.Y.Y.Y.Y.Y.Y.Y.Y.Y.Y.Y.Y.Y.Y.Y.Y.Y.Y.Y.Y.Y.Y.Y.Y.Y.Y.Y.Y.Y.Y.Y.Y.Y.Y.",
"Y.Y.Y.Y.Y.Y.Y.Y.Y.Y.Y.Y.Y.Y.Y.Y.Y.Y.Y.Y.Y.Y.Y.Y.Y.Y.Y.Y.Y.Y.Y.Y.Y.Y.Y.Y.Y.Y.Y.Y.Y.Y.Y.Y.Y.Y.Y.Y.Y.Y.Y.Y.Y.Y.Y.Y.Y.Y.Y.Y.",
"Y.Y.Y.Y.Y.Y.Y.Y.Y.Y.Y.Y.Y.Y.Y.Y.Y.Y.Y.Y.Y.Y.Y.Y.Y.Y.Y.Y.Y.Y.Y.Y.Y.Y.Y.Y.Y.Y.Y.Y.Y.Y.Y.Y.Y.Y.Y.Y.Y.Y.Y.Y.Y.Y.Y.Y.Y.Y.Y.Y.",
"Y.Y.Y.Y.Y.Y.Y.Y.Y.Y.Y.Y.Y.Y.Y.Y.Y.Y.Y.Y.Y.Y.Y.Y.Y.Y.Y.Y.Y.Y.Y.Y.Y.Y.Y.Y.Y.Y.Y.Y.Y.Y.Y.Y.Y.Y.Y.Y.Y.Y.Y.Y.Y.Y.Y.Y.Y.Y.Y.Y.",
"Y.Y.Y.Y.Y.Y.Y.Y.Y.Y.Y.Y.Y.Y.Y.Y.Y.Y.Y.Y.Y.Y.Y.Y.Y.Y.Y.Y.Y.Y.Y.Y.Y.Y.Y.Y.Y.Y.Y.Y.Y.Y.Y.Y.Y.Y.Y.Y.Y.Y.Y.Y.Y.Y.Y.Y.Y.Y.Y.Y."
};
