/* XPM */
static char *result[] = {
/* columns rows colors chars-per-pixel */
"59 60 81 1 ",
"  c #010101",
". c #060808",
"X c #0A0A0A",
"o c #160102",
"O c #1F0101",
"+ c #240202",
"@ c #2A0202",
"# c #260908",
"$ c #340404",
"% c #3C0303",
"& c #340909",
"* c #232323",
"= c #430304",
"- c #4D0505",
"; c #540404",
": c #5C0303",
"> c #640507",
", c #6D0302",
"< c #730403",
"1 c #780301",
"2 c #464646",
"3 c #796868",
"4 c #747575",
"5 c #860302",
"6 c #8A0504",
"7 c #900503",
"8 c #9D0401",
"9 c #9C0809",
"0 c #8C1311",
"q c #A40402",
"w c #AC0503",
"e c #A50909",
"r c #A9080A",
"t c #B3090A",
"y c #BC0809",
"u c #CA0706",
"i c #CE0807",
"p c #C30808",
"a c #C90808",
"s c #D40705",
"d c #DA0503",
"f c #D10807",
"g c #E40502",
"h c #EC0502",
"j c #F70501",
"k c #F90501",
"l c #F70A06",
"z c #F70D09",
"x c #F7100D",
"c c #F71612",
"v c #F71C19",
"b c #F8221F",
"n c #F82421",
"m c #F8312E",
"M c #F83431",
"N c #F83F3C",
"B c #F9413F",
"V c #F94441",
"C c #F96865",
"Z c #FA8483",
"A c #FA8E8C",
"S c #FB9A98",
"D c #FCA7A5",
"F c #FCA9A7",
"G c #FBAEAD",
"H c #FCB9B7",
"J c #FCBDBC",
"K c #FDC0BF",
"L c #DFDFDF",
"P c #FCC3C2",
"I c #FDCECE",
"U c #FDD0CF",
"Y c #FDD2D1",
"T c #FDDEDD",
"R c #E6E6E6",
"E c #FEE3E3",
"W c #FEEDEC",
"Q c #FEF0EF",
"! c #FEF4F4",
"~ c #FFFFFF",
"^ c None",
/* pixels */
"^^^^^^^^  .  .  .  .  . ^^^^^^^^^^^X    .  . .   ..^^^^^^^^",
"^^^^^^^^               2~^^^^^^^^^^X               ^^^^^^^^",
"^^^^^^^^               4~^^^^^^^^^^X               ^^^^^^^^",
"^^^^^^^^ooooOOOOOOOOOOO3RL^^^^^^^^^#+OOOOOOOOOOOOO+^^^^^^^^",
"^^^^   @999tddddddddddg0**X^^^^^   7ddddddddddddddu@   ^^^^",
"^^^^   +rttajkkkkkkkkkk6   ^^^^^   8kkkjkkkkkkkkkkh$   ^^^^",
"^^^^   +rttpjjjjjjjjjjk6   ^^^^^   8kkjjjjjjjjjjkkg@   ^^^^",
"^^^^+O+=ypyijjjjjjjjjjkq@@$#^^^@@@@wkkjnmmmmmmmljjh;@@@^^^^",
"   #9retjhjjjjjjjjjjjjkhggh<   5hggjjjjSWWWWWWENjjjhggs@  .",
"   +rttpjjjjjjjjjjjkjjjkkkk1   5kkjjjjjD~~~~~~!Vjjjjjkg@   ",
"   +rttphjjjjjjjjjjjjjjjkjk1   5kkjjjjjG~~~~~~!Vjjjjjjg@   ",
"   +rtrpjjjjjjjjjjjjjjjjjjk7@@@8kjjjjjjZUII!~~!CmMmljjg@   ",
"   +rttpjjjjjjjjjjjjjjjjjjkhhggjjjjjkjjxccvJ~~~!WQTmjjg+   ",
"   +rttpjjjjjjjjjjkjjjjjjjjjjkjjjjkjjjjjjjlH~~~~~~WMjjg+   ",
"   +rttphjjjjjjjjjjjkjjjjjjjjjjjjjjjjjjjjjzJ~~^^~~WMjjg@   ",
"   +rttyjjjjjjjjjjjjjjjjjjjjjjjjjjjjjjjjjjjZJ^^W~~WMjkg+   ",
"   +rttpjjjjjjjjjjjjjjjjjjjjjjjjjjjjjjjjjjjjljzP~~WMjjg@   ",
"   +rttpjjjjjjjjjjjjjjjjjjjjjjjjjjjjjkjjjjjjjjzK~~WMjjg@   ",
"   +rtrphjjjjjjjjjjkjjjjjjjjjjjjjjjjjjjjjjjjkjxP~~QMjjg+   ",
"   +rttpjjjjjjjjjjjjjjjjjjjjjjjjjjjkjjjjjjjjkkzAJJGbjjg+  .",
"   +rttpjjjjjjjjjjjjjjjjjjjkjjjjjjjjjjjjjjjjjjjzllljjjg@   ",
"   +rttpjjjjjjjjjjjkjjjjjjjjjjjjjjjjjjjjjjjjjjjjjjjjjjg+  .",
"   +rtrphjjljjjjjjjjjjjjjjjjjjjjjjjjjkjjjjjjjjjjjjjjjjg@   ",
"   +rttpjjjjjjjjjjjjjjjjjjjjjjjjjjjjjjjjjjjjjjjjjjjjjjg@   ",
"   +rttpljjjjjjjjjjjjjjjjjjjjjjjjjjjjjjjjjjjjjjjkjjjjjg+   ",
"   +rttpljjjjjjjjjjjjjjjjjjjjjjjjkjjjjjjjjjjjjjjjjjjjkg@   ",
"   +rttpljjljjjjjjjjjjjjjkjjjjjjjjjjjjjjjjjjjjjjjjjkkkh$...",
". .+<<<6dgdgjjjjjjjjjjjjjjjjjjjkjjjjjjjkjjjjjjjjjjjw8q9^^^^",
"^^^^.  @tttajjjjjjjjjjjjjjjjjjjjjjjjjjjjkjjjjjjjkkg$   ^^^^",
"^^^^   +rttajjjljjjjjjjjjjjjjjjjjjjjjjjjjjjjjjjjjkg@   ^^^^",
"^^^^   @tttajjkkkjkjjjjjjjjjjljkjjjjjjjkjjjjjjjkkkh@   ^^^^",
"^^^^^..#>>>6sddgkjjjjjjjjjjjjkkkkjjjjjjjjjjjjjjw766&.X^^^^^",
"^^^^^^^^   $rttajjjjjjjjjjjjjjjjkjjjjjjjjjjjkjh%   ^^^^^^^^",
"^^^^^^^^   %tttajkjjjjjjjjkjjjjjjjjjjjjjjjjkjkj%   ^^^^^^^^",
"^^^^^^^^   $tttalkkljjjjjjjjjjjjjjjjjjjjjjjkkkh%   ^^^^^^^^",
"^^^^^^^^   @>>>6sddgjjjjjjjjjjjjjjjjjjjjjjje665%  ^^^^^^^^^",
"^^^^^^^^^^^^   %tttijjjjjjjjjjkjjjjjjjjjjjj=   ^^^^^^^^^^^^",
"^^^^^^^^^^^^   %tttajjjjjjjjjjjjkjjjjjjjjjh=   ^^^^^^^^^^^^",
"^^^^^^^^^^^^   %tttfkjjjljjkjjjjjjjjjjjjkkj=  .^^^^^^^^^^^^",
"^^^^^^^^^^^^^^^&;;;6fffgjjjjjjjjjjjjkjjq<<<%^^^^^^^^^^^^^^^",
"^^^^^^^^^^^^^^^^   -tttijjjjjjjkjjjjjjj;   ^^^^^^^^^^^^^^^^",
"^^^^^^^^^^^^^^^^   =tttijjjjjjjjjjjjjjj;   ^^^^^^^^^^^^^^^^",
"^^^^^^^^^^^^^^^^   -tttfkjkjjjjjjjjjkkj;   ^^^^^^^^^^^^^^^^",
"^^^^^^^^^^^^^^^^^^^$;-;6fffgkjjjjjjq,<<=^^^^^^^^^^^^^^^^^^^",
"^^^^^^^^^^^^^^^^^^^^  .-tttfjjjjjjj:   ^^^^^^^^^^^^^^^^^^^^",
"^^^^^^^^^^^^^^^^^^^^   -tttskjjjjjj:   ^^^^^^^^^^^^^^^^^^^^",
"^^^^^^^^^^^^^^^^^^^^   -tttskjjjjkj:   ^^^^^^^^^^^^^^^^^^^^",
"^^^^^^^^^^^^^^^^^^^^^^^&===6iii7:::%^^^^^^^^^^^^^^^^^^^^^^^",
"^^^^^^^^^^^^^^^^^^^^^^^^   :ttt-   ^^^^^^^^^^^^^^^^^^^^^^^^",
"^^^^^^^^^^^^^^^^^^^^^^^^   :ttt;   ^^^^^^^^^^^^^^^^^^^^^^^^",
"^^^^^^^^^^^^^^^^^^^^^^^^   :ttt-   ^^^^^^^^^^^^^^^^^^^^^^^^",
"^^^^^^^^^^^^^^^^^^^^^^^^^^^$===&^^^^^^^^^^^^^^^^^^^^^^^^^^^",
"^^^^^^^^^^^^^^^^^^^^^^^^^^^^   ^^^^^^^^^^^^^^^^^^^^^^^^^^^^",
"^^^^^^^^^^^^^^^^^^^^^^^^^^^^   ^^^^^^^^^^^^^^^^^^^^^^^^^^^^",
"^^^^^^^^^^^^^^^^^^^^^^^^^^^^^^^^^^^^^^^^^^^^^^^^^^^^^^^^^^^",
"^^^^^^^^^^^^^^^^^^^^^^^^^^^^^^^^^^^^^^^^^^^^^^^^^^^^^^^^^^^",
"^^^^^^^^^^^^^^^^^^^^^^^^^^^^^^^^^^^^^^^^^^^^^^^^^^^^^^^^^^^",
"^^^^^^^^^^^^^^^^^^^^^^^^^^^^^^^^^^^^^^^^^^^^^^^^^^^^^^^^^^^",
"^^^^^^^^^^^^^^^^^^^^^^^^^^^^^^^^^^^^^^^^^^^^^^^^^^^^^^^^^^^",
"^^^^^^^^^^^^^^^^^^^^^^^^^^^^^^^^^^^^^^^^^^^^^^^^^^^^^^^^^^^"
};
